<?xml version="1.0" encoding="UTF-8" standalone="no"?>
<!DOCTYPE svg PUBLIC "-//W3C//DTD SVG 1.1//EN"
 "http://www.w3.org/Graphics/SVG/1.1/DTD/svg11.dtd">
<!-- Generated by graphviz version 2.40.1 (20161225.0304)
 -->
<!-- Title: rquery_optree Pages: 1 -->
<svg width="283pt" height="696pt"
 viewBox="0.00 0.00 282.67 696.40" xmlns="http://www.w3.org/2000/svg" xmlns:xlink="http://www.w3.org/1999/xlink">
<g id="graph0" class="graph" transform="scale(1 1) rotate(0) translate(4 692.4)">
<title>rquery_optree</title>
<polygon fill="#ffffff" stroke="transparent" points="-4,4 -4,-692.4 278.671,-692.4 278.671,4 -4,4"/>
<!-- table_d -->
<g id="node1" class="node">
<title>table_d</title>
<polygon fill="#d3d3d3" stroke="#000000" points="196.5876,-688.3002 193.5876,-692.3002 172.5876,-692.3002 169.5876,-688.3002 78.0834,-688.3002 78.0834,-579.6998 196.5876,-579.6998 196.5876,-688.3002"/>
<text text-anchor="start" x="86.2096" y="-671.8" font-family="Times,serif" font-size="14.00" fill="#000000">table(d; </text>
<text text-anchor="start" x="86.2096" y="-655" font-family="Times,serif" font-size="14.00" fill="#000000"> &#160;subjectID,</text>
<text text-anchor="start" x="86.2096" y="-638.2" font-family="Times,serif" font-size="14.00" fill="#000000"> &#160;surveyCategory,</text>
<text text-anchor="start" x="86.2096" y="-621.4" font-family="Times,serif" font-size="14.00" fill="#000000"> &#160;assessmentTotal,</text>
<text text-anchor="start" x="86.2096" y="-604.6" font-family="Times,serif" font-size="14.00" fill="#000000"> &#160;irrelevantCol1,</text>
<text text-anchor="start" x="86.2096" y="-587.8" font-family="Times,serif" font-size="14.00" fill="#000000"> &#160;irrelevantCol2)</text>
</g>
<!-- node_2 -->
<g id="node2" class="node">
<title>node_2</title>
<polygon fill="#d3d3d3" stroke="#000000" points="274.5067,-544.6019 12.1643,-544.6019 12.1643,-548.6019 .1643,-548.6019 .1643,-503.3981 274.5067,-503.3981 274.5067,-544.6019"/>
<polyline fill="none" stroke="#000000" points=".1643,-544.6019 12.1643,-544.6019 "/>
<text text-anchor="start" x="8" y="-528.2" font-family="Times,serif" font-size="14.00" fill="#000000">extend(.,</text>
<text text-anchor="start" x="8" y="-511.4" font-family="Times,serif" font-size="14.00" fill="#000000"> &#160;probability := exp(assessmentTotal * 0.237))</text>
</g>
<!-- table_d&#45;&gt;node_2 -->
<g id="edge1" class="edge">
<title>table_d&#45;&gt;node_2</title>
<path fill="none" stroke="#000000" d="M137.3355,-579.6445C137.3355,-571.0856 137.3355,-562.506 137.3355,-554.7347"/>
<polygon fill="#000000" stroke="#000000" points="140.8356,-554.7164 137.3355,-544.7164 133.8356,-554.7164 140.8356,-554.7164"/>
<text text-anchor="middle" x="139.0855" y="-558" font-family="Times,serif" font-size="14.00" fill="#000000">.</text>
<polyline fill="none" stroke="#000000" points="140.8355,-553.8 137.3355,-553.8 137.3355,-562.2318 "/>
</g>
<!-- node_3 -->
<g id="node3" class="node">
<title>node_3</title>
<polygon fill="#d3d3d3" stroke="#000000" points="273.9805,-468.6014 12.6905,-468.6014 12.6905,-472.6014 .6905,-472.6014 .6905,-409.7986 273.9805,-409.7986 273.9805,-468.6014"/>
<polyline fill="none" stroke="#000000" points=".6905,-468.6014 12.6905,-468.6014 "/>
<text text-anchor="start" x="8.763" y="-451.8" font-family="Times,serif" font-size="14.00" fill="#000000">extend(.,</text>
<text text-anchor="start" x="8.763" y="-435" font-family="Times,serif" font-size="14.00" fill="#000000"> &#160;probability := probability / sum(probability),</text>
<text text-anchor="start" x="8.763" y="-418.2" font-family="Times,serif" font-size="14.00" fill="#000000"> &#160;p= subjectID)</text>
</g>
<!-- node_2&#45;&gt;node_3 -->
<g id="edge2" class="edge">
<title>node_2&#45;&gt;node_3</title>
<path fill="none" stroke="#000000" d="M137.3355,-503.0382C137.3355,-495.646 137.3355,-487.074 137.3355,-478.6574"/>
<polygon fill="#000000" stroke="#000000" points="140.8356,-478.5578 137.3355,-468.5578 133.8356,-478.5578 140.8356,-478.5578"/>
<text text-anchor="middle" x="139.0855" y="-481.6" font-family="Times,serif" font-size="14.00" fill="#000000">.</text>
<polyline fill="none" stroke="#000000" points="140.8355,-477.4 137.3355,-477.4 137.3355,-485.7661 "/>
</g>
<!-- node_4 -->
<g id="node4" class="node">
<title>node_4</title>
<polygon fill="#d3d3d3" stroke="#000000" points="258.7438,-375.3003 27.9272,-375.3003 27.9272,-379.3003 15.9272,-379.3003 15.9272,-299.8997 258.7438,-299.8997 258.7438,-375.3003"/>
<polyline fill="none" stroke="#000000" points="15.9272,-375.3003 27.9272,-375.3003 "/>
<text text-anchor="start" x="24.1315" y="-358.6" font-family="Times,serif" font-size="14.00" fill="#000000">extend(.,</text>
<text text-anchor="start" x="24.1315" y="-341.8" font-family="Times,serif" font-size="14.00" fill="#000000"> &#160;row_number := row_number(),</text>
<text text-anchor="start" x="24.1315" y="-325" font-family="Times,serif" font-size="14.00" fill="#000000"> &#160;p= subjectID,</text>
<text text-anchor="start" x="24.1315" y="-308.2" font-family="Times,serif" font-size="14.00" fill="#000000"> &#160;o= probability DESC, surveyCategory)</text>
</g>
<!-- node_3&#45;&gt;node_4 -->
<g id="edge3" class="edge">
<title>node_3&#45;&gt;node_4</title>
<path fill="none" stroke="#000000" d="M137.3355,-409.8131C137.3355,-402.1467 137.3355,-393.6838 137.3355,-385.332"/>
<polygon fill="#000000" stroke="#000000" points="140.8356,-385.2606 137.3355,-375.2606 133.8356,-385.2607 140.8356,-385.2606"/>
<text text-anchor="middle" x="139.0855" y="-388.4" font-family="Times,serif" font-size="14.00" fill="#000000">.</text>
<polyline fill="none" stroke="#000000" points="140.8355,-384.2 137.3355,-384.2 137.3355,-392.385 "/>
</g>
<!-- node_5 -->
<g id="node5" class="node">
<title>node_5</title>
<polygon fill="#d3d3d3" stroke="#000000" points="203.8192,-265.0019 82.8518,-265.0019 82.8518,-269.0019 70.8518,-269.0019 70.8518,-223.7981 203.8192,-223.7981 203.8192,-265.0019"/>
<polyline fill="none" stroke="#000000" points="70.8518,-265.0019 82.8518,-265.0019 "/>
<text text-anchor="start" x="79.0941" y="-248.6" font-family="Times,serif" font-size="14.00" fill="#000000">select_rows(.,</text>
<text text-anchor="start" x="79.0941" y="-231.8" font-family="Times,serif" font-size="14.00" fill="#000000"> &#160;&#160;row_number &lt;= 1)</text>
</g>
<!-- node_4&#45;&gt;node_5 -->
<g id="edge4" class="edge">
<title>node_4&#45;&gt;node_5</title>
<path fill="none" stroke="#000000" d="M137.3355,-299.9606C137.3355,-291.7637 137.3355,-283.1824 137.3355,-275.2834"/>
<polygon fill="#000000" stroke="#000000" points="140.8356,-275.0353 137.3355,-265.0353 133.8356,-275.0353 140.8356,-275.0353"/>
<text text-anchor="middle" x="139.0855" y="-278.4" font-family="Times,serif" font-size="14.00" fill="#000000">.</text>
<polyline fill="none" stroke="#000000" points="140.8355,-274.2 137.3355,-274.2 137.3355,-282.4709 "/>
</g>
<!-- node_6 -->
<g id="node6" class="node">
<title>node_6</title>
<polygon fill="#d3d3d3" stroke="#000000" points="236.9487,-188.6019 49.7223,-188.6019 49.7223,-192.6019 37.7223,-192.6019 37.7223,-147.3981 236.9487,-147.3981 236.9487,-188.6019"/>
<polyline fill="none" stroke="#000000" points="37.7223,-188.6019 49.7223,-188.6019 "/>
<text text-anchor="start" x="45.5291" y="-172.2" font-family="Times,serif" font-size="14.00" fill="#000000">rename(.,</text>
<text text-anchor="start" x="45.5291" y="-155.4" font-family="Times,serif" font-size="14.00" fill="#000000"> &#160;c(diagnosis = surveyCategory))</text>
</g>
<!-- node_5&#45;&gt;node_6 -->
<g id="edge5" class="edge">
<title>node_5&#45;&gt;node_6</title>
<path fill="none" stroke="#000000" d="M137.3355,-223.5234C137.3355,-215.9436 137.3355,-207.2093 137.3355,-198.9453"/>
<polygon fill="#000000" stroke="#000000" points="140.8356,-198.8514 137.3355,-188.8514 133.8356,-198.8514 140.8356,-198.8514"/>
<text text-anchor="middle" x="139.0855" y="-202" font-family="Times,serif" font-size="14.00" fill="#000000">.</text>
<polyline fill="none" stroke="#000000" points="140.8355,-197.8 137.3355,-197.8 137.3355,-205.9935 "/>
</g>
<!-- node_7 -->
<g id="node7" class="node">
<title>node_7</title>
<polygon fill="#d3d3d3" stroke="#000000" points="244.2409,-112.2019 42.4301,-112.2019 42.4301,-116.2019 30.4301,-116.2019 30.4301,-70.9981 244.2409,-70.9981 244.2409,-112.2019"/>
<polyline fill="none" stroke="#000000" points="30.4301,-112.2019 42.4301,-112.2019 "/>
<text text-anchor="start" x="38.3828" y="-95.8" font-family="Times,serif" font-size="14.00" fill="#000000">select_columns(.,</text>
<text text-anchor="start" x="38.3828" y="-79" font-family="Times,serif" font-size="14.00" fill="#000000"> &#160;&#160;subjectID, diagnosis, probability)</text>
</g>
<!-- node_6&#45;&gt;node_7 -->
<g id="edge6" class="edge">
<title>node_6&#45;&gt;node_7</title>
<path fill="none" stroke="#000000" d="M137.3355,-147.1234C137.3355,-139.5436 137.3355,-130.8093 137.3355,-122.5453"/>
<polygon fill="#000000" stroke="#000000" points="140.8356,-122.4514 137.3355,-112.4514 133.8356,-122.4514 140.8356,-122.4514"/>
<text text-anchor="middle" x="139.0855" y="-125.6" font-family="Times,serif" font-size="14.00" fill="#000000">.</text>
<polyline fill="none" stroke="#000000" points="140.8355,-121.4 137.3355,-121.4 137.3355,-129.5935 "/>
</g>
<!-- node_8 -->
<g id="node8" class="node">
<title>node_8</title>
<polygon fill="#d3d3d3" stroke="#000000" points="204.1149,-36 82.5561,-36 82.5561,-40 70.5561,-40 70.5561,0 204.1149,0 204.1149,-36"/>
<polyline fill="none" stroke="#000000" points="70.5561,-36 82.5561,-36 "/>
<text text-anchor="start" x="78.4459" y="-13.8" font-family="Times,serif" font-size="14.00" fill="#000000">orderby(., subjectID)</text>
</g>
<!-- node_7&#45;&gt;node_8 -->
<g id="edge7" class="edge">
<title>node_7&#45;&gt;node_8</title>
<path fill="none" stroke="#000000" d="M137.3355,-70.7061C137.3355,-63.1413 137.3355,-54.4661 137.3355,-46.3668"/>
<polygon fill="#000000" stroke="#000000" points="140.8356,-46.1932 137.3355,-36.1933 133.8356,-46.1933 140.8356,-46.1932"/>
<text text-anchor="middle" x="139.0855" y="-49.2" font-family="Times,serif" font-size="14.00" fill="#000000">.</text>
<polyline fill="none" stroke="#000000" points="140.8355,-45 137.3355,-45 137.3355,-53.2997 "/>
</g>
</g>
</svg>

