<?xml version="1.0" encoding="UTF-8" standalone="no"?>
<!DOCTYPE svg PUBLIC "-//W3C//DTD SVG 1.1//EN"
 "http://www.w3.org/Graphics/SVG/1.1/DTD/svg11.dtd">
<!-- Generated by graphviz version 2.40.1 (20161225.0304)
 -->
<!-- Title: rquery_optree Pages: 1 -->
<svg width="506pt" height="1451pt"
 viewBox="0.00 0.00 505.94 1450.60" xmlns="http://www.w3.org/2000/svg" xmlns:xlink="http://www.w3.org/1999/xlink">
<g id="graph0" class="graph" transform="scale(1 1) rotate(0) translate(4 1446.6)">
<title>rquery_optree</title>
<polygon fill="#ffffff" stroke="transparent" points="-4,4 -4,-1446.6 501.9402,-1446.6 501.9402,4 -4,4"/>
<!-- table_d -->
<g id="node1" class="node">
<title>table_d</title>
<polygon fill="#66cd00" stroke="#000000" points="332.2222,-1442.5002 329.2222,-1446.5002 308.2222,-1446.5002 305.2222,-1442.5002 213.718,-1442.5002 213.718,-1333.8998 332.2222,-1333.8998 332.2222,-1442.5002"/>
<text text-anchor="start" x="221.8442" y="-1426" font-family="Times,serif" font-size="14.00" fill="#000000">table(`d`; </text>
<text text-anchor="start" x="221.8442" y="-1409.2" font-family="Times,serif" font-size="14.00" fill="#000000"> &#160;subjectID,</text>
<text text-anchor="start" x="221.8442" y="-1392.4" font-family="Times,serif" font-size="14.00" fill="#000000"> &#160;surveyCategory,</text>
<text text-anchor="start" x="221.8442" y="-1375.6" font-family="Times,serif" font-size="14.00" fill="#000000"> &#160;assessmentTotal,</text>
<text text-anchor="start" x="221.8442" y="-1358.8" font-family="Times,serif" font-size="14.00" fill="#000000"> &#160;irrelevantCol1,</text>
<text text-anchor="start" x="221.8442" y="-1342" font-family="Times,serif" font-size="14.00" fill="#000000"> &#160;irrelevantCol2)</text>
</g>
<!-- node_2 -->
<g id="node2" class="node">
<title>node_2</title>
<polygon fill="#cdc673" stroke="#000000" points="410.1413,-1298.8019 135.7989,-1298.8019 135.7989,-1257.5981 410.1413,-1257.5981 410.1413,-1298.8019"/>
<text text-anchor="start" x="143.6346" y="-1282.4" font-family="Times,serif" font-size="14.00" fill="#000000">extend(.,</text>
<text text-anchor="start" x="143.6346" y="-1265.6" font-family="Times,serif" font-size="14.00" fill="#000000"> &#160;probability := exp(assessmentTotal * 0.237))</text>
</g>
<!-- table_d&#45;&gt;node_2 -->
<g id="edge1" class="edge">
<title>table_d&#45;&gt;node_2</title>
<path fill="none" stroke="#000000" d="M272.9701,-1333.8445C272.9701,-1325.2856 272.9701,-1316.706 272.9701,-1308.9347"/>
<polygon fill="#000000" stroke="#000000" points="276.4702,-1308.9164 272.9701,-1298.9164 269.4702,-1308.9164 276.4702,-1308.9164"/>
<text text-anchor="middle" x="274.7201" y="-1312.2" font-family="Times,serif" font-size="14.00" fill="#000000">.</text>
<polyline fill="none" stroke="#000000" points="276.4701,-1308 272.9701,-1308 272.9701,-1316.4318 "/>
</g>
<!-- table_ex_43867708645243063765_0000000000 -->
<g id="node3" class="node">
<title>table_ex_43867708645243063765_0000000000</title>
<polygon fill="#66cd00" stroke="#000000" points="419.4467,-1238.2006 416.4467,-1242.2006 395.4467,-1242.2006 392.4467,-1238.2006 126.4935,-1238.2006 126.4935,-1112.9994 419.4467,-1112.9994 419.4467,-1238.2006"/>
<text text-anchor="start" x="134.732" y="-1221.8" font-family="Times,serif" font-size="14.00" fill="#000000">table(ex_43867708645243063765_0000000000; </text>
<text text-anchor="start" x="134.732" y="-1205" font-family="Times,serif" font-size="14.00" fill="#000000"> &#160;subjectID,</text>
<text text-anchor="start" x="134.732" y="-1188.2" font-family="Times,serif" font-size="14.00" fill="#000000"> &#160;surveyCategory,</text>
<text text-anchor="start" x="134.732" y="-1171.4" font-family="Times,serif" font-size="14.00" fill="#000000"> &#160;assessmentTotal,</text>
<text text-anchor="start" x="134.732" y="-1154.6" font-family="Times,serif" font-size="14.00" fill="#000000"> &#160;irrelevantCol1,</text>
<text text-anchor="start" x="134.732" y="-1137.8" font-family="Times,serif" font-size="14.00" fill="#000000"> &#160;irrelevantCol2,</text>
<text text-anchor="start" x="134.732" y="-1121" font-family="Times,serif" font-size="14.00" fill="#000000"> &#160;probability)</text>
</g>
<!-- node_2&#45;&gt;table_ex_43867708645243063765_0000000000 -->
<g id="edge13" class="edge">
<title>node_2&#45;&gt;table_ex_43867708645243063765_0000000000</title>
<path fill="none" stroke="#000000" d="M272.9701,-1257.4374C272.9701,-1254.6578 272.9701,-1251.6903 272.9701,-1248.5934"/>
<polygon fill="#000000" stroke="#000000" points="276.4702,-1248.3348 272.9701,-1238.3348 269.4702,-1248.3348 276.4702,-1248.3348"/>
</g>
<!-- node_5 -->
<g id="node4" class="node">
<title>node_5</title>
<polygon fill="#cdc673" stroke="#000000" points="296.8227,-1077.8019 63.1175,-1077.8019 63.1175,-1036.5981 296.8227,-1036.5981 296.8227,-1077.8019"/>
<text text-anchor="start" x="71.0438" y="-1061.4" font-family="Times,serif" font-size="14.00" fill="#000000">project(., tot_prob := sum(probability),</text>
<text text-anchor="start" x="71.0438" y="-1044.6" font-family="Times,serif" font-size="14.00" fill="#000000"> &#160;g= subjectID)</text>
</g>
<!-- table_ex_43867708645243063765_0000000000&#45;&gt;node_5 -->
<g id="edge2" class="edge">
<title>table_ex_43867708645243063765_0000000000&#45;&gt;node_5</title>
<path fill="none" stroke="#000000" d="M223.7469,-1112.933C216.2965,-1103.4477 208.9396,-1094.0816 202.4448,-1085.813"/>
<polygon fill="#000000" stroke="#000000" points="205.1954,-1083.6486 196.2659,-1077.9465 199.6905,-1087.9726 205.1954,-1083.6486"/>
<text text-anchor="middle" x="217.7201" y="-1091.2" font-family="Times,serif" font-size="14.00" fill="#000000">.</text>
<polyline fill="none" stroke="#000000" points="219.4701,-1087 215.9701,-1087 212.5696,-1098.7031 "/>
</g>
<!-- node_9 -->
<g id="node6" class="node">
<title>node_9</title>
<polygon fill="#cdc673" stroke="#000000" points="391.4859,-908.4 124.4543,-908.4 124.4543,-872.4 391.4859,-872.4 391.4859,-908.4"/>
<text text-anchor="start" x="132.4622" y="-886.2" font-family="Times,serif" font-size="14.00" fill="#000000">natural_join(.1, .2, &#160;j= LEFT, by= subjectID)</text>
</g>
<!-- table_ex_43867708645243063765_0000000000&#45;&gt;node_9 -->
<g id="edge3" class="edge">
<title>table_ex_43867708645243063765_0000000000&#45;&gt;node_9</title>
<path fill="none" stroke="#000000" d="M306.9967,-1112.916C328.358,-1064.657 347.4638,-997.2822 321.9701,-943.2 316.7399,-932.1048 307.9077,-922.5486 298.4485,-914.7354"/>
<polygon fill="#000000" stroke="#000000" points="300.4877,-911.8887 290.4206,-908.5867 296.2313,-917.4459 300.4877,-911.8887"/>
<text text-anchor="middle" x="339.2201" y="-1014.8" font-family="Times,serif" font-size="14.00" fill="#000000">.1</text>
<polyline fill="none" stroke="#000000" points="344.4701,-1010.6 333.9701,-1010.6 333.429,-1018.4044 "/>
</g>
<!-- table_ex_43867708645243063765_0000000001 -->
<g id="node5" class="node">
<title>table_ex_43867708645243063765_0000000001</title>
<polygon fill="#66cd00" stroke="#000000" points="304.4467,-1001.8014 301.4467,-1005.8014 280.4467,-1005.8014 277.4467,-1001.8014 11.4935,-1001.8014 11.4935,-942.9986 304.4467,-942.9986 304.4467,-1001.8014"/>
<text text-anchor="start" x="19.732" y="-985" font-family="Times,serif" font-size="14.00" fill="#000000">table(ex_43867708645243063765_0000000001; </text>
<text text-anchor="start" x="19.732" y="-968.2" font-family="Times,serif" font-size="14.00" fill="#000000"> &#160;subjectID,</text>
<text text-anchor="start" x="19.732" y="-951.4" font-family="Times,serif" font-size="14.00" fill="#000000"> &#160;tot_prob)</text>
</g>
<!-- node_5&#45;&gt;table_ex_43867708645243063765_0000000001 -->
<g id="edge14" class="edge">
<title>node_5&#45;&gt;table_ex_43867708645243063765_0000000001</title>
<path fill="none" stroke="#000000" d="M174.5319,-1036.2382C172.593,-1028.7648 170.3413,-1020.0855 168.1347,-1011.58"/>
<polygon fill="#000000" stroke="#000000" points="171.4856,-1010.5584 165.5865,-1001.7578 164.7099,-1012.3163 171.4856,-1010.5584"/>
</g>
<!-- table_ex_43867708645243063765_0000000001&#45;&gt;node_9 -->
<g id="edge4" class="edge">
<title>table_ex_43867708645243063765_0000000001&#45;&gt;node_9</title>
<path fill="none" stroke="#000000" d="M193.7899,-943.0277C204.9547,-933.8726 217.1479,-923.8742 227.8787,-915.0749"/>
<polygon fill="#000000" stroke="#000000" points="230.245,-917.6608 235.7584,-908.6136 225.8064,-912.248 230.245,-917.6608"/>
<text text-anchor="middle" x="228.2201" y="-921.6" font-family="Times,serif" font-size="14.00" fill="#000000">.2</text>
<polyline fill="none" stroke="#000000" points="233.4701,-917.4 222.9701,-917.4 222.751,-919.2796 "/>
</g>
<!-- node_10 -->
<g id="node7" class="node">
<title>node_10</title>
<polygon fill="#cdc673" stroke="#000000" points="371.6238,-837.4019 144.3164,-837.4019 144.3164,-796.1981 371.6238,-796.1981 371.6238,-837.4019"/>
<text text-anchor="start" x="152.1434" y="-821" font-family="Times,serif" font-size="14.00" fill="#000000">extend(.,</text>
<text text-anchor="start" x="152.1434" y="-804.2" font-family="Times,serif" font-size="14.00" fill="#000000"> &#160;probability := probability / tot_prob)</text>
</g>
<!-- node_9&#45;&gt;node_10 -->
<g id="edge5" class="edge">
<title>node_9&#45;&gt;node_10</title>
<path fill="none" stroke="#000000" d="M257.9701,-872.2067C257.9701,-864.8437 257.9701,-856.1321 257.9701,-847.8234"/>
<polygon fill="#000000" stroke="#000000" points="261.4702,-847.6463 257.9701,-837.6463 254.4702,-847.6464 261.4702,-847.6463"/>
<text text-anchor="middle" x="259.7201" y="-850.8" font-family="Times,serif" font-size="14.00" fill="#000000">.</text>
<polyline fill="none" stroke="#000000" points="261.4701,-846.6 257.9701,-846.6 257.9701,-854.8905 "/>
</g>
<!-- table_ex_43867708645243063765_0000000002 -->
<g id="node8" class="node">
<title>table_ex_43867708645243063765_0000000002</title>
<polygon fill="#66cd00" stroke="#000000" points="404.4467,-777.2006 401.4467,-781.2006 380.4467,-781.2006 377.4467,-777.2006 111.4935,-777.2006 111.4935,-634.3994 404.4467,-634.3994 404.4467,-777.2006"/>
<text text-anchor="start" x="119.732" y="-760.4" font-family="Times,serif" font-size="14.00" fill="#000000">table(ex_43867708645243063765_0000000002; </text>
<text text-anchor="start" x="119.732" y="-743.6" font-family="Times,serif" font-size="14.00" fill="#000000"> &#160;subjectID,</text>
<text text-anchor="start" x="119.732" y="-726.8" font-family="Times,serif" font-size="14.00" fill="#000000"> &#160;surveyCategory,</text>
<text text-anchor="start" x="119.732" y="-710" font-family="Times,serif" font-size="14.00" fill="#000000"> &#160;assessmentTotal,</text>
<text text-anchor="start" x="119.732" y="-693.2" font-family="Times,serif" font-size="14.00" fill="#000000"> &#160;irrelevantCol1,</text>
<text text-anchor="start" x="119.732" y="-676.4" font-family="Times,serif" font-size="14.00" fill="#000000"> &#160;irrelevantCol2,</text>
<text text-anchor="start" x="119.732" y="-659.6" font-family="Times,serif" font-size="14.00" fill="#000000"> &#160;probability,</text>
<text text-anchor="start" x="119.732" y="-642.8" font-family="Times,serif" font-size="14.00" fill="#000000"> &#160;tot_prob)</text>
</g>
<!-- node_10&#45;&gt;table_ex_43867708645243063765_0000000002 -->
<g id="edge15" class="edge">
<title>node_10&#45;&gt;table_ex_43867708645243063765_0000000002</title>
<path fill="none" stroke="#000000" d="M257.9701,-796.1819C257.9701,-793.4487 257.9701,-790.5258 257.9701,-787.4652"/>
<polygon fill="#000000" stroke="#000000" points="261.4702,-787.2858 257.9701,-777.2858 254.4702,-787.2858 261.4702,-787.2858"/>
</g>
<!-- node_13 -->
<g id="node9" class="node">
<title>node_13</title>
<polygon fill="#cdc673" stroke="#000000" points="290.0888,-599.6019 41.8514,-599.6019 41.8514,-558.3981 290.0888,-558.3981 290.0888,-599.6019"/>
<text text-anchor="start" x="49.6609" y="-583.2" font-family="Times,serif" font-size="14.00" fill="#000000">project(., probability := max(probability),</text>
<text text-anchor="start" x="49.6609" y="-566.4" font-family="Times,serif" font-size="14.00" fill="#000000"> &#160;g= subjectID)</text>
</g>
<!-- table_ex_43867708645243063765_0000000002&#45;&gt;node_13 -->
<g id="edge6" class="edge">
<title>table_ex_43867708645243063765_0000000002&#45;&gt;node_13</title>
<path fill="none" stroke="#000000" d="M206.055,-634.2475C199.3503,-625.0066 192.8161,-616.0007 187.0348,-608.0327"/>
<polygon fill="#000000" stroke="#000000" points="189.7903,-605.8705 181.0847,-599.8319 184.1245,-609.9813 189.7903,-605.8705"/>
<text text-anchor="middle" x="200.7201" y="-613" font-family="Times,serif" font-size="14.00" fill="#000000">.</text>
<polyline fill="none" stroke="#000000" points="202.4701,-608.8 198.9701,-608.8 195.8995,-620.2505 "/>
</g>
<!-- node_17 -->
<g id="node11" class="node">
<title>node_17</title>
<polygon fill="#cdc673" stroke="#000000" points="421.2462,-430.2 76.694,-430.2 76.694,-394.2 421.2462,-394.2 421.2462,-430.2"/>
<text text-anchor="start" x="84.5821" y="-408" font-family="Times,serif" font-size="14.00" fill="#000000">natural_join(.1, .2, &#160;j= INNER, by= subjectID, probability)</text>
</g>
<!-- table_ex_43867708645243063765_0000000002&#45;&gt;node_17 -->
<g id="edge8" class="edge">
<title>table_ex_43867708645243063765_0000000002&#45;&gt;node_17</title>
<path fill="none" stroke="#000000" d="M297.9794,-634.4011C320.0527,-585.0356 338.3399,-518.8192 312.9701,-465 307.7399,-453.9048 298.9077,-444.3486 289.4485,-436.5354"/>
<polygon fill="#000000" stroke="#000000" points="291.4877,-433.6887 281.4206,-430.3867 287.2313,-439.2459 291.4877,-433.6887"/>
<text text-anchor="middle" x="331.2201" y="-536.6" font-family="Times,serif" font-size="14.00" fill="#000000">.2</text>
<polyline fill="none" stroke="#000000" points="336.4701,-532.4 325.9701,-532.4 324.5682,-539.961 "/>
</g>
<!-- table_ex_43867708645243063765_0000000003 -->
<g id="node10" class="node">
<title>table_ex_43867708645243063765_0000000003</title>
<polygon fill="#66cd00" stroke="#000000" points="295.4467,-523.6014 292.4467,-527.6014 271.4467,-527.6014 268.4467,-523.6014 2.4935,-523.6014 2.4935,-464.7986 295.4467,-464.7986 295.4467,-523.6014"/>
<text text-anchor="start" x="10.732" y="-506.8" font-family="Times,serif" font-size="14.00" fill="#000000">table(ex_43867708645243063765_0000000003; </text>
<text text-anchor="start" x="10.732" y="-490" font-family="Times,serif" font-size="14.00" fill="#000000"> &#160;subjectID,</text>
<text text-anchor="start" x="10.732" y="-473.2" font-family="Times,serif" font-size="14.00" fill="#000000"> &#160;probability)</text>
</g>
<!-- node_13&#45;&gt;table_ex_43867708645243063765_0000000003 -->
<g id="edge16" class="edge">
<title>node_13&#45;&gt;table_ex_43867708645243063765_0000000003</title>
<path fill="none" stroke="#000000" d="M161.7679,-558.0382C160.2696,-550.5648 158.5297,-541.8855 156.8246,-533.38"/>
<polygon fill="#000000" stroke="#000000" points="160.2529,-532.6747 154.8555,-523.5578 153.3895,-534.0507 160.2529,-532.6747"/>
</g>
<!-- table_ex_43867708645243063765_0000000003&#45;&gt;node_17 -->
<g id="edge7" class="edge">
<title>table_ex_43867708645243063765_0000000003&#45;&gt;node_17</title>
<path fill="none" stroke="#000000" d="M184.7899,-464.8277C195.9547,-455.6726 208.1479,-445.6742 218.8787,-436.8749"/>
<polygon fill="#000000" stroke="#000000" points="221.245,-439.4608 226.7584,-430.4136 216.8064,-434.048 221.245,-439.4608"/>
<text text-anchor="middle" x="219.2201" y="-443.4" font-family="Times,serif" font-size="14.00" fill="#000000">.1</text>
<polyline fill="none" stroke="#000000" points="224.4701,-439.2 213.9701,-439.2 213.751,-441.0796 "/>
</g>
<!-- node_18 -->
<g id="node12" class="node">
<title>node_18</title>
<polygon fill="#cdc673" stroke="#000000" points="497.9103,-359.2019 .0299,-359.2019 .0299,-317.9981 497.9103,-317.9981 497.9103,-359.2019"/>
<text text-anchor="start" x="8" y="-342.8" font-family="Times,serif" font-size="14.00" fill="#000000">project(., probability := max(probability), surveyCategory := min(surveyCategory [...]</text>
<text text-anchor="middle" x="248.9701" y="-326" font-family="Times,serif" font-size="14.00" fill="#000000"> &#160;g= subjectID)</text>
</g>
<!-- node_17&#45;&gt;node_18 -->
<g id="edge9" class="edge">
<title>node_17&#45;&gt;node_18</title>
<path fill="none" stroke="#000000" d="M248.9701,-394.0067C248.9701,-386.6437 248.9701,-377.9321 248.9701,-369.6234"/>
<polygon fill="#000000" stroke="#000000" points="252.4702,-369.4463 248.9701,-359.4463 245.4702,-369.4464 252.4702,-369.4463"/>
<text text-anchor="middle" x="250.7201" y="-372.6" font-family="Times,serif" font-size="14.00" fill="#000000">.</text>
<polyline fill="none" stroke="#000000" points="252.4701,-368.4 248.9701,-368.4 248.9701,-376.6905 "/>
</g>
<!-- node_19 -->
<g id="node13" class="node">
<title>node_19</title>
<polygon fill="#cdc673" stroke="#000000" points="348.5833,-282.8019 149.3569,-282.8019 149.3569,-241.5981 348.5833,-241.5981 348.5833,-282.8019"/>
<text text-anchor="start" x="157.1637" y="-266.4" font-family="Times,serif" font-size="14.00" fill="#000000">rename(.,</text>
<text text-anchor="start" x="157.1637" y="-249.6" font-family="Times,serif" font-size="14.00" fill="#000000"> &#160;c(diagnosis = surveyCategory))</text>
</g>
<!-- node_18&#45;&gt;node_19 -->
<g id="edge10" class="edge">
<title>node_18&#45;&gt;node_19</title>
<path fill="none" stroke="#000000" d="M248.9701,-317.7234C248.9701,-310.1436 248.9701,-301.4093 248.9701,-293.1453"/>
<polygon fill="#000000" stroke="#000000" points="252.4702,-293.0514 248.9701,-283.0514 245.4702,-293.0514 252.4702,-293.0514"/>
<text text-anchor="middle" x="250.7201" y="-296.2" font-family="Times,serif" font-size="14.00" fill="#000000">.</text>
<polyline fill="none" stroke="#000000" points="252.4701,-292 248.9701,-292 248.9701,-300.1935 "/>
</g>
<!-- node_20 -->
<g id="node14" class="node">
<title>node_20</title>
<polygon fill="#cdc673" stroke="#000000" points="355.8755,-206.4019 142.0647,-206.4019 142.0647,-165.1981 355.8755,-165.1981 355.8755,-206.4019"/>
<text text-anchor="start" x="150.0174" y="-190" font-family="Times,serif" font-size="14.00" fill="#000000">select_columns(.,</text>
<text text-anchor="start" x="150.0174" y="-173.2" font-family="Times,serif" font-size="14.00" fill="#000000"> &#160;&#160;subjectID, diagnosis, probability)</text>
</g>
<!-- node_19&#45;&gt;node_20 -->
<g id="edge11" class="edge">
<title>node_19&#45;&gt;node_20</title>
<path fill="none" stroke="#000000" d="M248.9701,-241.3234C248.9701,-233.7436 248.9701,-225.0093 248.9701,-216.7453"/>
<polygon fill="#000000" stroke="#000000" points="252.4702,-216.6514 248.9701,-206.6514 245.4702,-216.6514 252.4702,-216.6514"/>
<text text-anchor="middle" x="250.7201" y="-219.8" font-family="Times,serif" font-size="14.00" fill="#000000">.</text>
<polyline fill="none" stroke="#000000" points="252.4701,-215.6 248.9701,-215.6 248.9701,-223.7935 "/>
</g>
<!-- node_21 -->
<g id="node15" class="node">
<title>node_21</title>
<polygon fill="#cdc673" stroke="#000000" points="315.7495,-130.2 182.1907,-130.2 182.1907,-94.2 315.7495,-94.2 315.7495,-130.2"/>
<text text-anchor="start" x="190.0805" y="-108" font-family="Times,serif" font-size="14.00" fill="#000000">orderby(., subjectID)</text>
</g>
<!-- node_20&#45;&gt;node_21 -->
<g id="edge12" class="edge">
<title>node_20&#45;&gt;node_21</title>
<path fill="none" stroke="#000000" d="M248.9701,-164.9061C248.9701,-157.3413 248.9701,-148.6661 248.9701,-140.5668"/>
<polygon fill="#000000" stroke="#000000" points="252.4702,-140.3932 248.9701,-130.3933 245.4702,-140.3933 252.4702,-140.3932"/>
<text text-anchor="middle" x="250.7201" y="-143.4" font-family="Times,serif" font-size="14.00" fill="#000000">.</text>
<polyline fill="none" stroke="#000000" points="252.4701,-139.2 248.9701,-139.2 248.9701,-147.4997 "/>
</g>
<!-- table_result_table -->
<g id="node16" class="node">
<title>table_result_table</title>
<polygon fill="#66cd00" stroke="#000000" points="309.0439,-75.3003 306.0439,-79.3003 285.0439,-79.3003 282.0439,-75.3003 188.8963,-75.3003 188.8963,.1003 309.0439,.1003 309.0439,-75.3003"/>
<text text-anchor="start" x="196.6836" y="-58.6" font-family="Times,serif" font-size="14.00" fill="#000000">table(result_table; </text>
<text text-anchor="start" x="196.6836" y="-41.8" font-family="Times,serif" font-size="14.00" fill="#000000"> &#160;subjectID,</text>
<text text-anchor="start" x="196.6836" y="-25" font-family="Times,serif" font-size="14.00" fill="#000000"> &#160;diagnosis,</text>
<text text-anchor="start" x="196.6836" y="-8.2" font-family="Times,serif" font-size="14.00" fill="#000000"> &#160;probability)</text>
</g>
<!-- node_21&#45;&gt;table_result_table -->
<g id="edge17" class="edge">
<title>node_21&#45;&gt;table_result_table</title>
<path fill="none" stroke="#000000" d="M248.9701,-94.1414C248.9701,-91.4733 248.9701,-88.6243 248.9701,-85.6771"/>
<polygon fill="#000000" stroke="#000000" points="252.4702,-85.3985 248.9701,-75.3986 245.4702,-85.3986 252.4702,-85.3985"/>
</g>
</g>
</svg>

