<?xml version="1.0" encoding="UTF-8" standalone="no"?>
<!DOCTYPE svg PUBLIC "-//W3C//DTD SVG 1.1//EN"
 "http://www.w3.org/Graphics/SVG/1.1/DTD/svg11.dtd">
<!-- Generated by graphviz version 2.40.1 (20161225.0304)
 -->
<!-- Title: rquery_optree Pages: 1 -->
<svg width="333pt" height="383pt"
 viewBox="0.00 0.00 333.15 383.20" xmlns="http://www.w3.org/2000/svg" xmlns:xlink="http://www.w3.org/1999/xlink">
<g id="graph0" class="graph" transform="scale(1 1) rotate(0) translate(4 379.2)">
<title>rquery_optree</title>
<polygon fill="#ffffff" stroke="transparent" points="-4,4 -4,-379.2 329.148,-379.2 329.148,4 -4,4"/>
<!-- table_d -->
<g id="node1" class="node">
<title>table_d</title>
<polygon fill="#66cd00" stroke="#000000" points="198.158,-375.0019 195.158,-379.0019 174.158,-379.0019 171.158,-375.0019 126.99,-375.0019 126.99,-333.7981 198.158,-333.7981 198.158,-375.0019"/>
<text text-anchor="start" x="134.7826" y="-358.6" font-family="Times,serif" font-size="14.00" fill="#000000">table(`d`; </text>
<text text-anchor="start" x="134.7826" y="-341.8" font-family="Times,serif" font-size="14.00" fill="#000000"> &#160;x)</text>
</g>
<!-- node_3 -->
<g id="node2" class="node">
<title>node_3</title>
<polygon fill="#cdc673" stroke="#000000" points="272.168,-298.8 52.98,-298.8 52.98,-262.8 272.168,-262.8 272.168,-298.8"/>
<text text-anchor="start" x="60.7772" y="-276.6" font-family="Times,serif" font-size="14.00" fill="#000000">natural_join(.1, .2, &#160;j= LEFT, by= x)</text>
</g>
<!-- table_d&#45;&gt;node_3 -->
<g id="edge1" class="edge">
<title>table_d&#45;&gt;node_3</title>
<path fill="none" stroke="#000000" d="M140.8591,-333.5017C138.9253,-330.6951 137.2553,-327.7061 136.074,-324.6 133.4198,-317.621 133.2489,-314.7116 136.074,-307.8 136.1144,-307.7012 136.1553,-307.6026 136.1968,-307.5041"/>
<polygon fill="#000000" stroke="#000000" points="139.2234,-309.2626 141.3717,-298.8878 133.2225,-305.6584 139.2234,-309.2626"/>
<text text-anchor="middle" x="141.824" y="-312" font-family="Times,serif" font-size="14.00" fill="#000000">.1</text>
<polyline fill="none" stroke="#000000" points="147.074,-307.8 136.574,-307.8 134.0192,-316.1747 "/>
</g>
<!-- table_d&#45;&gt;node_3 -->
<g id="edge2" class="edge">
<title>table_d&#45;&gt;node_3</title>
<path fill="none" stroke="#000000" d="M162.574,-333.5061C162.574,-325.9413 162.574,-317.2661 162.574,-309.1668"/>
<polygon fill="#000000" stroke="#000000" points="166.0741,-308.9932 162.574,-298.9933 159.0741,-308.9933 166.0741,-308.9932"/>
<text text-anchor="middle" x="167.824" y="-312" font-family="Times,serif" font-size="14.00" fill="#000000">.2</text>
<polyline fill="none" stroke="#000000" points="173.074,-307.8 162.574,-307.8 162.574,-316.0997 "/>
</g>
<!-- table_tmpnam_46459930837195445743_0000000000 -->
<g id="node3" class="node">
<title>table_tmpnam_46459930837195445743_0000000000</title>
<polygon fill="#66cd00" stroke="#000000" points="325.222,-243.6019 322.222,-247.6019 301.222,-247.6019 298.222,-243.6019 -.074,-243.6019 -.074,-202.3981 325.222,-202.3981 325.222,-243.6019"/>
<text text-anchor="start" x="8" y="-227.2" font-family="Times,serif" font-size="14.00" fill="#000000">table(tmpnam_46459930837195445743_0000000000; </text>
<text text-anchor="start" x="8" y="-210.4" font-family="Times,serif" font-size="14.00" fill="#000000"> &#160;x)</text>
</g>
<!-- node_3&#45;&gt;table_tmpnam_46459930837195445743_0000000000 -->
<g id="edge7" class="edge">
<title>node_3&#45;&gt;table_tmpnam_46459930837195445743_0000000000</title>
<path fill="none" stroke="#000000" d="M162.574,-262.5117C162.574,-259.7211 162.574,-256.7773 162.574,-253.8064"/>
<polygon fill="#000000" stroke="#000000" points="166.0741,-253.7854 162.574,-243.7855 159.0741,-253.7855 166.0741,-253.7854"/>
</g>
<!-- node_7 -->
<g id="node4" class="node">
<title>node_7</title>
<polygon fill="#cdc673" stroke="#000000" points="272.168,-167.4 52.98,-167.4 52.98,-131.4 272.168,-131.4 272.168,-167.4"/>
<text text-anchor="start" x="60.7772" y="-145.2" font-family="Times,serif" font-size="14.00" fill="#000000">natural_join(.1, .2, &#160;j= LEFT, by= x)</text>
</g>
<!-- table_tmpnam_46459930837195445743_0000000000&#45;&gt;node_7 -->
<g id="edge3" class="edge">
<title>table_tmpnam_46459930837195445743_0000000000&#45;&gt;node_7</title>
<path fill="none" stroke="#000000" d="M140.8591,-202.1017C138.9253,-199.2951 137.2553,-196.3061 136.074,-193.2 133.4198,-186.221 133.2489,-183.3116 136.074,-176.4 136.1144,-176.3012 136.1553,-176.2026 136.1968,-176.1041"/>
<polygon fill="#000000" stroke="#000000" points="139.2234,-177.8626 141.3717,-167.4878 133.2225,-174.2584 139.2234,-177.8626"/>
<text text-anchor="middle" x="141.824" y="-180.6" font-family="Times,serif" font-size="14.00" fill="#000000">.1</text>
<polyline fill="none" stroke="#000000" points="147.074,-176.4 136.574,-176.4 134.0192,-184.7747 "/>
</g>
<!-- table_tmpnam_46459930837195445743_0000000000&#45;&gt;node_7 -->
<g id="edge4" class="edge">
<title>table_tmpnam_46459930837195445743_0000000000&#45;&gt;node_7</title>
<path fill="none" stroke="#000000" d="M162.574,-202.1061C162.574,-194.5413 162.574,-185.8661 162.574,-177.7668"/>
<polygon fill="#000000" stroke="#000000" points="166.0741,-177.5932 162.574,-167.5933 159.0741,-177.5933 166.0741,-177.5932"/>
<text text-anchor="middle" x="167.824" y="-180.6" font-family="Times,serif" font-size="14.00" fill="#000000">.2</text>
<polyline fill="none" stroke="#000000" points="173.074,-176.4 162.574,-176.4 162.574,-184.6997 "/>
</g>
<!-- table_tmpnam_46459930837195445743_0000000001 -->
<g id="node5" class="node">
<title>table_tmpnam_46459930837195445743_0000000001</title>
<polygon fill="#66cd00" stroke="#000000" points="325.222,-112.2019 322.222,-116.2019 301.222,-116.2019 298.222,-112.2019 -.074,-112.2019 -.074,-70.9981 325.222,-70.9981 325.222,-112.2019"/>
<text text-anchor="start" x="8" y="-95.8" font-family="Times,serif" font-size="14.00" fill="#000000">table(tmpnam_46459930837195445743_0000000001; </text>
<text text-anchor="start" x="8" y="-79" font-family="Times,serif" font-size="14.00" fill="#000000"> &#160;x)</text>
</g>
<!-- node_7&#45;&gt;table_tmpnam_46459930837195445743_0000000001 -->
<g id="edge8" class="edge">
<title>node_7&#45;&gt;table_tmpnam_46459930837195445743_0000000001</title>
<path fill="none" stroke="#000000" d="M162.574,-131.1117C162.574,-128.3211 162.574,-125.3773 162.574,-122.4064"/>
<polygon fill="#000000" stroke="#000000" points="166.0741,-122.3854 162.574,-112.3855 159.0741,-122.3855 166.0741,-122.3854"/>
</g>
<!-- node_11 -->
<g id="node6" class="node">
<title>node_11</title>
<polygon fill="#cdc673" stroke="#000000" points="272.168,-36 52.98,-36 52.98,0 272.168,0 272.168,-36"/>
<text text-anchor="start" x="60.7772" y="-13.8" font-family="Times,serif" font-size="14.00" fill="#000000">natural_join(.1, .2, &#160;j= LEFT, by= x)</text>
</g>
<!-- table_tmpnam_46459930837195445743_0000000001&#45;&gt;node_11 -->
<g id="edge5" class="edge">
<title>table_tmpnam_46459930837195445743_0000000001&#45;&gt;node_11</title>
<path fill="none" stroke="#000000" d="M140.8591,-70.7017C138.9253,-67.8951 137.2553,-64.9061 136.074,-61.8 133.4198,-54.821 133.2489,-51.9116 136.074,-45 136.1144,-44.9012 136.1553,-44.8026 136.1968,-44.7041"/>
<polygon fill="#000000" stroke="#000000" points="139.2234,-46.4626 141.3717,-36.0878 133.2225,-42.8584 139.2234,-46.4626"/>
<text text-anchor="middle" x="141.824" y="-49.2" font-family="Times,serif" font-size="14.00" fill="#000000">.1</text>
<polyline fill="none" stroke="#000000" points="147.074,-45 136.574,-45 134.0192,-53.3747 "/>
</g>
<!-- table_tmpnam_46459930837195445743_0000000001&#45;&gt;node_11 -->
<g id="edge6" class="edge">
<title>table_tmpnam_46459930837195445743_0000000001&#45;&gt;node_11</title>
<path fill="none" stroke="#000000" d="M162.574,-70.7061C162.574,-63.1413 162.574,-54.4661 162.574,-46.3668"/>
<polygon fill="#000000" stroke="#000000" points="166.0741,-46.1932 162.574,-36.1933 159.0741,-46.1933 166.0741,-46.1932"/>
<text text-anchor="middle" x="167.824" y="-49.2" font-family="Times,serif" font-size="14.00" fill="#000000">.2</text>
<polyline fill="none" stroke="#000000" points="173.074,-45 162.574,-45 162.574,-53.2997 "/>
</g>
</g>
</svg>

