<?xml version="1.0" encoding="UTF-8" standalone="no"?>
<!DOCTYPE svg PUBLIC "-//W3C//DTD SVG 1.1//EN"
 "http://www.w3.org/Graphics/SVG/1.1/DTD/svg11.dtd">
<!-- Generated by graphviz version 2.40.1 (20161225.0304)
 -->
<!-- Title: rquery_optree Pages: 1 -->
<svg width="996pt" height="508pt"
 viewBox="0.00 0.00 995.59 508.00" xmlns="http://www.w3.org/2000/svg" xmlns:xlink="http://www.w3.org/1999/xlink">
<g id="graph0" class="graph" transform="scale(1 1) rotate(0) translate(4 504)">
<title>rquery_optree</title>
<polygon fill="#ffffff" stroke="transparent" points="-4,4 -4,-504 991.5936,-504 991.5936,4 -4,4"/>
<!-- table_d -->
<g id="node1" class="node">
<title>table_d</title>
<polygon fill="#66cd00" stroke="#000000" points="531.059,-500.2014 528.059,-504.2014 507.059,-504.2014 504.059,-500.2014 468.5346,-500.2014 468.5346,-441.3986 531.059,-441.3986 531.059,-500.2014"/>
<text text-anchor="start" x="476.666" y="-483.4" font-family="Times,serif" font-size="14.00" fill="#000000">table(d; </text>
<text text-anchor="start" x="476.666" y="-466.6" font-family="Times,serif" font-size="14.00" fill="#000000"> &#160;x,</text>
<text text-anchor="start" x="476.666" y="-449.8" font-family="Times,serif" font-size="14.00" fill="#000000"> &#160;y)</text>
</g>
<!-- node_3 -->
<g id="node2" class="node">
<title>node_3</title>
<polygon fill="#ffa500" stroke="#000000" points="213.3908,-406.8 .2028,-406.8 .2028,-370.8 219.3908,-370.8 219.3908,-400.8 213.3908,-406.8"/>
<polyline fill="none" stroke="#000000" points="213.3908,-406.8 213.3908,-400.8 "/>
<polyline fill="none" stroke="#000000" points="219.3908,-400.8 213.3908,-400.8 "/>
<text text-anchor="start" x="8" y="-384.6" font-family="Times,serif" font-size="14.00" fill="#000000">natural_join(.1, .2, &#160;j= LEFT, by= x)</text>
</g>
<!-- table_d&#45;&gt;node_3 -->
<g id="edge1" class="edge">
<title>table_d&#45;&gt;node_3</title>
<path fill="none" stroke="#000000" d="M468.6041,-468.6947C417.3712,-464.7378 312.485,-454.5336 226.2968,-432.6 204.2422,-426.9874 180.6161,-418.5796 160.4445,-410.6264"/>
<polygon fill="#000000" stroke="#000000" points="161.7248,-407.3689 151.1406,-406.8948 159.119,-413.8658 161.7248,-407.3689"/>
<text text-anchor="middle" x="232.0468" y="-420" font-family="Times,serif" font-size="14.00" fill="#000000">.1</text>
<polyline fill="none" stroke="#000000" points="237.2968,-415.8 226.7968,-415.8 226.2322,-432.5835 "/>
</g>
<!-- table_d&#45;&gt;node_3 -->
<g id="edge2" class="edge">
<title>table_d&#45;&gt;node_3</title>
<path fill="none" stroke="#000000" d="M468.4395,-464.0279C419.8961,-453.564 323.613,-432.888 241.7968,-415.8 230.994,-413.5438 219.6897,-411.2021 208.4356,-408.8831"/>
<polygon fill="#000000" stroke="#000000" points="209.0726,-405.4409 198.5724,-406.8538 207.6619,-412.2973 209.0726,-405.4409"/>
<text text-anchor="middle" x="325.0468" y="-420" font-family="Times,serif" font-size="14.00" fill="#000000">.2</text>
<polyline fill="none" stroke="#000000" points="330.2968,-415.8 319.7968,-415.8 323.3218,-432.9766 "/>
</g>
<!-- node_7 -->
<g id="node4" class="node">
<title>node_7</title>
<polygon fill="#ffa500" stroke="#000000" points="469.3908,-406.8 256.2028,-406.8 256.2028,-370.8 475.3908,-370.8 475.3908,-400.8 469.3908,-406.8"/>
<polyline fill="none" stroke="#000000" points="469.3908,-406.8 469.3908,-400.8 "/>
<polyline fill="none" stroke="#000000" points="475.3908,-400.8 469.3908,-400.8 "/>
<text text-anchor="start" x="264" y="-384.6" font-family="Times,serif" font-size="14.00" fill="#000000">natural_join(.1, .2, &#160;j= LEFT, by= x)</text>
</g>
<!-- table_d&#45;&gt;node_7 -->
<g id="edge4" class="edge">
<title>table_d&#45;&gt;node_7</title>
<path fill="none" stroke="#000000" d="M468.6254,-458.4365C453.0126,-451.6913 434.1162,-442.6685 418.2968,-432.6 409.7662,-427.1706 401.0996,-420.5045 393.332,-414.0261"/>
<polygon fill="#000000" stroke="#000000" points="395.1732,-410.994 385.3052,-407.1373 390.6143,-416.306 395.1732,-410.994"/>
<text text-anchor="middle" x="423.0468" y="-420" font-family="Times,serif" font-size="14.00" fill="#000000">.1</text>
<polyline fill="none" stroke="#000000" points="428.2968,-415.8 417.7968,-415.8 417.8968,-432.3446 "/>
</g>
<!-- table_d&#45;&gt;node_7 -->
<g id="edge5" class="edge">
<title>table_d&#45;&gt;node_7</title>
<path fill="none" stroke="#000000" d="M468.7701,-441.4925C458.2057,-432.4816 445.9767,-423.0408 433.7968,-415.8 431.1525,-414.228 428.3999,-412.7118 425.5832,-411.2549"/>
<polygon fill="#000000" stroke="#000000" points="426.9477,-408.0267 416.4232,-406.808 423.8906,-414.3239 426.9477,-408.0267"/>
<text text-anchor="middle" x="462.0468" y="-420" font-family="Times,serif" font-size="14.00" fill="#000000">.2</text>
<polyline fill="none" stroke="#000000" points="467.2968,-415.8 456.7968,-415.8 456.5443,-431.5227 "/>
</g>
<!-- node_13 -->
<g id="node8" class="node">
<title>node_13</title>
<polygon fill="#ffa500" stroke="#000000" points="725.3908,-406.8 512.2028,-406.8 512.2028,-370.8 731.3908,-370.8 731.3908,-400.8 725.3908,-406.8"/>
<polyline fill="none" stroke="#000000" points="725.3908,-406.8 725.3908,-400.8 "/>
<polyline fill="none" stroke="#000000" points="731.3908,-400.8 725.3908,-400.8 "/>
<text text-anchor="start" x="520" y="-384.6" font-family="Times,serif" font-size="14.00" fill="#000000">natural_join(.1, .2, &#160;j= LEFT, by= x)</text>
</g>
<!-- table_d&#45;&gt;node_13 -->
<g id="edge10" class="edge">
<title>table_d&#45;&gt;node_13</title>
<path fill="none" stroke="#000000" d="M527.5066,-441.5504C537.0149,-432.5429 548.0963,-423.0895 559.2968,-415.8 561.4639,-414.3896 563.7169,-413.0231 566.0255,-411.7033"/>
<polygon fill="#000000" stroke="#000000" points="567.9584,-414.6394 575.1402,-406.8502 564.6684,-408.4607 567.9584,-414.6394"/>
<text text-anchor="middle" x="564.0468" y="-420" font-family="Times,serif" font-size="14.00" fill="#000000">.1</text>
<polyline fill="none" stroke="#000000" points="569.2968,-415.8 558.7968,-415.8 559.5002,-415.6679 "/>
</g>
<!-- table_d&#45;&gt;node_13 -->
<g id="edge11" class="edge">
<title>table_d&#45;&gt;node_13</title>
<path fill="none" stroke="#000000" d="M531.195,-457.2205C545.0703,-450.6201 561.2686,-442.0678 574.7968,-432.6 582.4157,-427.2679 590.0571,-420.7631 596.8983,-414.415"/>
<polygon fill="#000000" stroke="#000000" points="599.7165,-416.5618 604.5124,-407.1146 594.8719,-411.5091 599.7165,-416.5618"/>
<text text-anchor="middle" x="600.0468" y="-420" font-family="Times,serif" font-size="14.00" fill="#000000">.2</text>
<polyline fill="none" stroke="#000000" points="605.2968,-415.8 594.7968,-415.8 593.6361,-417.3971 "/>
</g>
<!-- node_17 -->
<g id="node10" class="node">
<title>node_17</title>
<polygon fill="#ffa500" stroke="#000000" points="981.3908,-406.8 768.2028,-406.8 768.2028,-370.8 987.3908,-370.8 987.3908,-400.8 981.3908,-406.8"/>
<polyline fill="none" stroke="#000000" points="981.3908,-406.8 981.3908,-400.8 "/>
<polyline fill="none" stroke="#000000" points="987.3908,-400.8 981.3908,-400.8 "/>
<text text-anchor="start" x="776" y="-384.6" font-family="Times,serif" font-size="14.00" fill="#000000">natural_join(.1, .2, &#160;j= LEFT, by= x)</text>
</g>
<!-- table_d&#45;&gt;node_17 -->
<g id="edge13" class="edge">
<title>table_d&#45;&gt;node_17</title>
<path fill="none" stroke="#000000" d="M531.0517,-464.0198C586.0381,-452.0916 702.0771,-426.9191 784.7618,-408.9822"/>
<polygon fill="#000000" stroke="#000000" points="785.643,-412.3725 794.6737,-406.832 784.1589,-405.5316 785.643,-412.3725"/>
<text text-anchor="middle" x="749.0468" y="-420" font-family="Times,serif" font-size="14.00" fill="#000000">.1</text>
<polyline fill="none" stroke="#000000" points="754.2968,-415.8 743.7968,-415.8 747.6342,-417.0363 "/>
</g>
<!-- table_d&#45;&gt;node_17 -->
<g id="edge14" class="edge">
<title>table_d&#45;&gt;node_17</title>
<path fill="none" stroke="#000000" d="M531.1328,-468.5404C581.0356,-464.4368 681.3462,-454.1157 763.7968,-432.6 785.3057,-426.9872 808.3178,-418.6253 827.9942,-410.7075"/>
<polygon fill="#000000" stroke="#000000" points="829.4367,-413.899 837.3644,-406.8703 826.7839,-407.4211 829.4367,-413.899"/>
<text text-anchor="middle" x="819.0468" y="-420" font-family="Times,serif" font-size="14.00" fill="#000000">.2</text>
<polyline fill="none" stroke="#000000" points="824.2968,-415.8 813.7968,-415.8 815.6316,-415.5606 "/>
</g>
<!-- node_4 -->
<g id="node3" class="node">
<title>node_4</title>
<polygon fill="#ffa500" stroke="#000000" points="249.1379,-335.8019 172.4557,-335.8019 172.4557,-294.5981 255.1379,-294.5981 255.1379,-329.8019 249.1379,-335.8019"/>
<polyline fill="none" stroke="#000000" points="249.1379,-335.8019 249.1379,-329.8019 "/>
<polyline fill="none" stroke="#000000" points="255.1379,-329.8019 249.1379,-329.8019 "/>
<text text-anchor="start" x="180.6266" y="-319.4" font-family="Times,serif" font-size="14.00" fill="#000000">extend(.,</text>
<text text-anchor="start" x="180.6266" y="-302.6" font-family="Times,serif" font-size="14.00" fill="#000000"> &#160;y := y + 1)</text>
</g>
<!-- node_3&#45;&gt;node_4 -->
<g id="edge3" class="edge">
<title>node_3&#45;&gt;node_4</title>
<path fill="none" stroke="#000000" d="M135.2381,-370.7954C147.5883,-362.0553 162.6706,-351.3816 176.3062,-341.7318"/>
<polygon fill="#000000" stroke="#000000" points="178.431,-344.5159 184.5719,-335.8822 174.3873,-338.802 178.431,-344.5159"/>
<text text-anchor="middle" x="173.5468" y="-349.2" font-family="Times,serif" font-size="14.00" fill="#000000">.</text>
<polyline fill="none" stroke="#000000" points="175.2968,-345 171.7968,-345 169.1683,-346.7832 "/>
</g>
<!-- node_9 -->
<g id="node6" class="node">
<title>node_9</title>
<polygon fill="#ffa500" stroke="#000000" points="469.3908,-259.6 256.2028,-259.6 256.2028,-223.6 475.3908,-223.6 475.3908,-253.6 469.3908,-259.6"/>
<polyline fill="none" stroke="#000000" points="469.3908,-259.6 469.3908,-253.6 "/>
<polyline fill="none" stroke="#000000" points="475.3908,-253.6 469.3908,-253.6 "/>
<text text-anchor="start" x="264" y="-237.4" font-family="Times,serif" font-size="14.00" fill="#000000">natural_join(.1, .2, &#160;j= LEFT, by= x)</text>
</g>
<!-- node_4&#45;&gt;node_9 -->
<g id="edge7" class="edge">
<title>node_4&#45;&gt;node_9</title>
<path fill="none" stroke="#000000" d="M255.3315,-295.0885C275.15,-285.4921 298.9355,-273.9749 319.3509,-264.0896"/>
<polygon fill="#000000" stroke="#000000" points="320.9924,-267.1836 328.4674,-259.6753 317.9417,-260.8833 320.9924,-267.1836"/>
<text text-anchor="middle" x="313.0468" y="-272.8" font-family="Times,serif" font-size="14.00" fill="#000000">.1</text>
<polyline fill="none" stroke="#000000" points="318.2968,-268.6 307.7968,-268.6 309.063,-269.0711 "/>
</g>
<!-- node_8 -->
<g id="node5" class="node">
<title>node_8</title>
<polygon fill="#ffa500" stroke="#000000" points="401.1379,-335.8019 324.4557,-335.8019 324.4557,-294.5981 407.1379,-294.5981 407.1379,-329.8019 401.1379,-335.8019"/>
<polyline fill="none" stroke="#000000" points="401.1379,-335.8019 401.1379,-329.8019 "/>
<polyline fill="none" stroke="#000000" points="407.1379,-329.8019 401.1379,-329.8019 "/>
<text text-anchor="start" x="332.6266" y="-319.4" font-family="Times,serif" font-size="14.00" fill="#000000">extend(.,</text>
<text text-anchor="start" x="332.6266" y="-302.6" font-family="Times,serif" font-size="14.00" fill="#000000"> &#160;y := y + 1)</text>
</g>
<!-- node_7&#45;&gt;node_8 -->
<g id="edge6" class="edge">
<title>node_7&#45;&gt;node_8</title>
<path fill="none" stroke="#000000" d="M365.7968,-370.6067C365.7968,-363.2437 365.7968,-354.5321 365.7968,-346.2234"/>
<polygon fill="#000000" stroke="#000000" points="369.2969,-346.0463 365.7968,-336.0463 362.2969,-346.0464 369.2969,-346.0463"/>
<text text-anchor="middle" x="367.5468" y="-349.2" font-family="Times,serif" font-size="14.00" fill="#000000">.</text>
<polyline fill="none" stroke="#000000" points="369.2968,-345 365.7968,-345 365.7968,-353.2905 "/>
</g>
<!-- node_8&#45;&gt;node_9 -->
<g id="edge8" class="edge">
<title>node_8&#45;&gt;node_9</title>
<path fill="none" stroke="#000000" d="M365.7968,-294.3061C365.7968,-286.7413 365.7968,-278.0661 365.7968,-269.9668"/>
<polygon fill="#000000" stroke="#000000" points="369.2969,-269.7932 365.7968,-259.7933 362.2969,-269.7933 369.2969,-269.7932"/>
<text text-anchor="middle" x="371.0468" y="-272.8" font-family="Times,serif" font-size="14.00" fill="#000000">.2</text>
<polyline fill="none" stroke="#000000" points="376.2968,-268.6 365.7968,-268.6 365.7968,-276.8997 "/>
</g>
<!-- node_10 -->
<g id="node7" class="node">
<title>node_10</title>
<polygon fill="#ffa500" stroke="#000000" points="504.1379,-188.6019 427.4557,-188.6019 427.4557,-147.3981 510.1379,-147.3981 510.1379,-182.6019 504.1379,-188.6019"/>
<polyline fill="none" stroke="#000000" points="504.1379,-188.6019 504.1379,-182.6019 "/>
<polyline fill="none" stroke="#000000" points="510.1379,-182.6019 504.1379,-182.6019 "/>
<text text-anchor="start" x="435.6266" y="-172.2" font-family="Times,serif" font-size="14.00" fill="#000000">extend(.,</text>
<text text-anchor="start" x="435.6266" y="-155.4" font-family="Times,serif" font-size="14.00" fill="#000000"> &#160;y := y + 1)</text>
</g>
<!-- node_9&#45;&gt;node_10 -->
<g id="edge9" class="edge">
<title>node_9&#45;&gt;node_10</title>
<path fill="none" stroke="#000000" d="M390.9934,-223.5954C403.2249,-214.8553 418.1622,-204.1816 431.6667,-194.5318"/>
<polygon fill="#000000" stroke="#000000" points="433.7515,-197.3439 439.8529,-188.6822 429.6817,-191.6485 433.7515,-197.3439"/>
<text text-anchor="middle" x="427.5468" y="-202" font-family="Times,serif" font-size="14.00" fill="#000000">.</text>
<polyline fill="none" stroke="#000000" points="429.2968,-197.8 425.7968,-197.8 423.2947,-200.5141 "/>
</g>
<!-- node_21 -->
<g id="node14" class="node">
<title>node_21</title>
<polygon fill="#cdc673" stroke="#000000" points="637.3908,-112.4 418.2028,-112.4 418.2028,-76.4 637.3908,-76.4 637.3908,-112.4"/>
<text text-anchor="start" x="426" y="-90.2" font-family="Times,serif" font-size="14.00" fill="#000000">natural_join(.1, .2, &#160;j= LEFT, by= x)</text>
</g>
<!-- node_10&#45;&gt;node_21 -->
<g id="edge19" class="edge">
<title>node_10&#45;&gt;node_21</title>
<path fill="none" stroke="#000000" d="M485.546,-147.1061C492.1553,-138.8613 499.8219,-129.2975 506.7957,-120.598"/>
<polygon fill="#000000" stroke="#000000" points="509.6887,-122.5849 513.2125,-112.5933 504.2269,-118.2066 509.6887,-122.5849"/>
<text text-anchor="middle" x="510.0468" y="-125.6" font-family="Times,serif" font-size="14.00" fill="#000000">.1</text>
<polyline fill="none" stroke="#000000" points="515.2968,-121.4 504.7968,-121.4 503.4827,-124.7309 "/>
</g>
<!-- node_14 -->
<g id="node9" class="node">
<title>node_14</title>
<polygon fill="#ffa500" stroke="#000000" points="657.1379,-335.8019 580.4557,-335.8019 580.4557,-294.5981 663.1379,-294.5981 663.1379,-329.8019 657.1379,-335.8019"/>
<polyline fill="none" stroke="#000000" points="657.1379,-335.8019 657.1379,-329.8019 "/>
<polyline fill="none" stroke="#000000" points="663.1379,-329.8019 657.1379,-329.8019 "/>
<text text-anchor="start" x="588.6266" y="-319.4" font-family="Times,serif" font-size="14.00" fill="#000000">extend(.,</text>
<text text-anchor="start" x="588.6266" y="-302.6" font-family="Times,serif" font-size="14.00" fill="#000000"> &#160;y := y + 1)</text>
</g>
<!-- node_13&#45;&gt;node_14 -->
<g id="edge12" class="edge">
<title>node_13&#45;&gt;node_14</title>
<path fill="none" stroke="#000000" d="M621.7968,-370.6067C621.7968,-363.2437 621.7968,-354.5321 621.7968,-346.2234"/>
<polygon fill="#000000" stroke="#000000" points="625.2969,-346.0463 621.7968,-336.0463 618.2969,-346.0464 625.2969,-346.0463"/>
<text text-anchor="middle" x="623.5468" y="-349.2" font-family="Times,serif" font-size="14.00" fill="#000000">.</text>
<polyline fill="none" stroke="#000000" points="625.2968,-345 621.7968,-345 621.7968,-353.2905 "/>
</g>
<!-- node_19 -->
<g id="node12" class="node">
<title>node_19</title>
<polygon fill="#ffa500" stroke="#000000" points="725.3908,-259.6 512.2028,-259.6 512.2028,-223.6 731.3908,-223.6 731.3908,-253.6 725.3908,-259.6"/>
<polyline fill="none" stroke="#000000" points="725.3908,-259.6 725.3908,-253.6 "/>
<polyline fill="none" stroke="#000000" points="731.3908,-253.6 725.3908,-253.6 "/>
<text text-anchor="start" x="520" y="-237.4" font-family="Times,serif" font-size="14.00" fill="#000000">natural_join(.1, .2, &#160;j= LEFT, by= x)</text>
</g>
<!-- node_14&#45;&gt;node_19 -->
<g id="edge16" class="edge">
<title>node_14&#45;&gt;node_19</title>
<path fill="none" stroke="#000000" d="M621.7968,-294.3061C621.7968,-286.7413 621.7968,-278.0661 621.7968,-269.9668"/>
<polygon fill="#000000" stroke="#000000" points="625.2969,-269.7932 621.7968,-259.7933 618.2969,-269.7933 625.2969,-269.7932"/>
<text text-anchor="middle" x="627.0468" y="-272.8" font-family="Times,serif" font-size="14.00" fill="#000000">.1</text>
<polyline fill="none" stroke="#000000" points="632.2968,-268.6 621.7968,-268.6 621.7968,-276.8997 "/>
</g>
<!-- node_18 -->
<g id="node11" class="node">
<title>node_18</title>
<polygon fill="#ffa500" stroke="#000000" points="844.1379,-335.8019 767.4557,-335.8019 767.4557,-294.5981 850.1379,-294.5981 850.1379,-329.8019 844.1379,-335.8019"/>
<polyline fill="none" stroke="#000000" points="844.1379,-335.8019 844.1379,-329.8019 "/>
<polyline fill="none" stroke="#000000" points="850.1379,-329.8019 844.1379,-329.8019 "/>
<text text-anchor="start" x="775.6266" y="-319.4" font-family="Times,serif" font-size="14.00" fill="#000000">extend(.,</text>
<text text-anchor="start" x="775.6266" y="-302.6" font-family="Times,serif" font-size="14.00" fill="#000000"> &#160;y := y + 1)</text>
</g>
<!-- node_17&#45;&gt;node_18 -->
<g id="edge15" class="edge">
<title>node_17&#45;&gt;node_18</title>
<path fill="none" stroke="#000000" d="M860.7406,-370.6067C853.0708,-362.4256 843.8401,-352.5795 835.301,-343.4711"/>
<polygon fill="#000000" stroke="#000000" points="837.7331,-340.9479 828.3402,-336.0463 832.6263,-345.7355 837.7331,-340.9479"/>
<text text-anchor="middle" x="852.5468" y="-349.2" font-family="Times,serif" font-size="14.00" fill="#000000">.</text>
<polyline fill="none" stroke="#000000" points="854.2968,-345 850.7968,-345 848.5499,-357.6033 "/>
</g>
<!-- node_18&#45;&gt;node_19 -->
<g id="edge17" class="edge">
<title>node_18&#45;&gt;node_19</title>
<path fill="none" stroke="#000000" d="M767.2954,-298.8658C740.8071,-288.4404 706.1548,-274.8019 677.3125,-263.45"/>
<polygon fill="#000000" stroke="#000000" points="678.3612,-260.1015 667.7742,-259.6959 675.7975,-266.6152 678.3612,-260.1015"/>
<text text-anchor="middle" x="737.0468" y="-272.8" font-family="Times,serif" font-size="14.00" fill="#000000">.2</text>
<polyline fill="none" stroke="#000000" points="742.2968,-268.6 731.7968,-268.6 733.7102,-285.6472 "/>
</g>
<!-- node_20 -->
<g id="node13" class="node">
<title>node_20</title>
<polygon fill="#ffa500" stroke="#000000" points="639.1379,-188.6019 562.4557,-188.6019 562.4557,-147.3981 645.1379,-147.3981 645.1379,-182.6019 639.1379,-188.6019"/>
<polyline fill="none" stroke="#000000" points="639.1379,-188.6019 639.1379,-182.6019 "/>
<polyline fill="none" stroke="#000000" points="645.1379,-182.6019 639.1379,-182.6019 "/>
<text text-anchor="start" x="570.6266" y="-172.2" font-family="Times,serif" font-size="14.00" fill="#000000">extend(.,</text>
<text text-anchor="start" x="570.6266" y="-155.4" font-family="Times,serif" font-size="14.00" fill="#000000"> &#160;y := y + 1)</text>
</g>
<!-- node_19&#45;&gt;node_20 -->
<g id="edge18" class="edge">
<title>node_19&#45;&gt;node_20</title>
<path fill="none" stroke="#000000" d="M617.3474,-223.4067C615.5266,-215.9619 613.3687,-207.1383 611.3163,-198.7466"/>
<polygon fill="#000000" stroke="#000000" points="614.6706,-197.7286 608.8951,-188.8463 607.871,-199.3916 614.6706,-197.7286"/>
<text text-anchor="middle" x="616.5468" y="-202" font-family="Times,serif" font-size="14.00" fill="#000000">.</text>
<polyline fill="none" stroke="#000000" points="618.2968,-197.8 614.7968,-197.8 613.3551,-207.0827 "/>
</g>
<!-- node_20&#45;&gt;node_21 -->
<g id="edge20" class="edge">
<title>node_20&#45;&gt;node_21</title>
<path fill="none" stroke="#000000" d="M582.2215,-147.1061C573.4446,-138.6063 563.2201,-128.7047 554.0182,-119.7933"/>
<polygon fill="#000000" stroke="#000000" points="556.2018,-117.0358 546.5833,-112.5933 551.3321,-122.0643 556.2018,-117.0358"/>
<text text-anchor="middle" x="577.0468" y="-125.6" font-family="Times,serif" font-size="14.00" fill="#000000">.2</text>
<polyline fill="none" stroke="#000000" points="582.2968,-121.4 571.7968,-121.4 570.9736,-136.2133 "/>
</g>
<!-- node_22 -->
<g id="node15" class="node">
<title>node_22</title>
<polygon fill="#cdc673" stroke="#000000" points="569.1379,-41.4019 486.4557,-41.4019 486.4557,-.1981 569.1379,-.1981 569.1379,-41.4019"/>
<text text-anchor="start" x="494.6266" y="-25" font-family="Times,serif" font-size="14.00" fill="#000000">extend(.,</text>
<text text-anchor="start" x="494.6266" y="-8.2" font-family="Times,serif" font-size="14.00" fill="#000000"> &#160;y := y + 1)</text>
</g>
<!-- node_21&#45;&gt;node_22 -->
<g id="edge21" class="edge">
<title>node_21&#45;&gt;node_22</title>
<path fill="none" stroke="#000000" d="M527.7968,-76.2067C527.7968,-68.8437 527.7968,-60.1321 527.7968,-51.8234"/>
<polygon fill="#000000" stroke="#000000" points="531.2969,-51.6463 527.7968,-41.6463 524.2969,-51.6464 531.2969,-51.6463"/>
<text text-anchor="middle" x="529.5468" y="-54.8" font-family="Times,serif" font-size="14.00" fill="#000000">.</text>
<polyline fill="none" stroke="#000000" points="531.2968,-50.6 527.7968,-50.6 527.7968,-58.8905 "/>
</g>
</g>
</svg>

