<?xml version="1.0" encoding="UTF-8" standalone="no"?>
<!DOCTYPE svg PUBLIC "-//W3C//DTD SVG 1.1//EN"
 "http://www.w3.org/Graphics/SVG/1.1/DTD/svg11.dtd">
<!-- Generated by graphviz version 2.40.1 (20161225.0304)
 -->
<!-- Title: rquery_optree Pages: 1 -->
<svg width="333pt" height="586pt"
 viewBox="0.00 0.00 333.15 586.40" xmlns="http://www.w3.org/2000/svg" xmlns:xlink="http://www.w3.org/1999/xlink">
<g id="graph0" class="graph" transform="scale(1 1) rotate(0) translate(4 582.4)">
<title>rquery_optree</title>
<polygon fill="#ffffff" stroke="transparent" points="-4,4 -4,-582.4 329.148,-582.4 329.148,4 -4,4"/>
<!-- table_d -->
<g id="node1" class="node">
<title>table_d</title>
<polygon fill="#66cd00" stroke="#000000" points="193.8362,-578.6014 190.8362,-582.6014 169.8362,-582.6014 166.8362,-578.6014 131.3118,-578.6014 131.3118,-519.7986 193.8362,-519.7986 193.8362,-578.6014"/>
<text text-anchor="start" x="139.4432" y="-561.8" font-family="Times,serif" font-size="14.00" fill="#000000">table(d; </text>
<text text-anchor="start" x="139.4432" y="-545" font-family="Times,serif" font-size="14.00" fill="#000000"> &#160;x,</text>
<text text-anchor="start" x="139.4432" y="-528.2" font-family="Times,serif" font-size="14.00" fill="#000000"> &#160;y)</text>
</g>
<!-- node_3 -->
<g id="node2" class="node">
<title>node_3</title>
<polygon fill="#cdc673" stroke="#000000" points="272.168,-485.2 52.98,-485.2 52.98,-449.2 272.168,-449.2 272.168,-485.2"/>
<text text-anchor="start" x="60.7772" y="-463" font-family="Times,serif" font-size="14.00" fill="#000000">natural_join(.1, .2, &#160;j= LEFT, by= x)</text>
</g>
<!-- table_d&#45;&gt;node_3 -->
<g id="edge1" class="edge">
<title>table_d&#45;&gt;node_3</title>
<path fill="none" stroke="#000000" d="M139.6449,-519.6433C138.2178,-516.8271 136.9899,-513.9272 136.074,-511 133.8443,-503.874 133.2489,-501.1116 136.074,-494.2 136.1144,-494.1012 136.1553,-494.0026 136.1968,-493.9041"/>
<polygon fill="#000000" stroke="#000000" points="139.2234,-495.6626 141.3717,-485.2878 133.2225,-492.0584 139.2234,-495.6626"/>
<text text-anchor="middle" x="141.824" y="-498.4" font-family="Times,serif" font-size="14.00" fill="#000000">.1</text>
<polyline fill="none" stroke="#000000" points="147.074,-494.2 136.574,-494.2 134.1784,-502.5196 "/>
</g>
<!-- table_d&#45;&gt;node_3 -->
<g id="edge2" class="edge">
<title>table_d&#45;&gt;node_3</title>
<path fill="none" stroke="#000000" d="M162.574,-519.5961C162.574,-511.7745 162.574,-503.3517 162.574,-495.5956"/>
<polygon fill="#000000" stroke="#000000" points="166.0741,-495.5513 162.574,-485.5513 159.0741,-495.5514 166.0741,-495.5513"/>
<text text-anchor="middle" x="167.824" y="-498.4" font-family="Times,serif" font-size="14.00" fill="#000000">.2</text>
<polyline fill="none" stroke="#000000" points="173.074,-494.2 162.574,-494.2 162.574,-502.2698 "/>
</g>
<!-- node_4 -->
<g id="node3" class="node">
<title>node_4</title>
<polygon fill="#cdc673" stroke="#000000" points="219.5446,-414.2019 105.6034,-414.2019 105.6034,-372.9981 219.5446,-372.9981 219.5446,-414.2019"/>
<text text-anchor="start" x="113.5887" y="-397.8" font-family="Times,serif" font-size="14.00" fill="#000000">select_columns(.,</text>
<text text-anchor="start" x="113.5887" y="-381" font-family="Times,serif" font-size="14.00" fill="#000000"> &#160;&#160;x, y)</text>
</g>
<!-- node_3&#45;&gt;node_4 -->
<g id="edge3" class="edge">
<title>node_3&#45;&gt;node_4</title>
<path fill="none" stroke="#000000" d="M162.574,-449.0067C162.574,-441.6437 162.574,-432.9321 162.574,-424.6234"/>
<polygon fill="#000000" stroke="#000000" points="166.0741,-424.4463 162.574,-414.4463 159.0741,-424.4464 166.0741,-424.4463"/>
<text text-anchor="middle" x="164.324" y="-427.6" font-family="Times,serif" font-size="14.00" fill="#000000">.</text>
<polyline fill="none" stroke="#000000" points="166.074,-423.4 162.574,-423.4 162.574,-431.6905 "/>
</g>
<!-- table_tmpnam_12610621763528338898_0000000000 -->
<g id="node4" class="node">
<title>table_tmpnam_12610621763528338898_0000000000</title>
<polygon fill="#66cd00" stroke="#000000" points="325.222,-354.0014 322.222,-358.0014 301.222,-358.0014 298.222,-354.0014 -.074,-354.0014 -.074,-295.1986 325.222,-295.1986 325.222,-354.0014"/>
<text text-anchor="start" x="8" y="-337.2" font-family="Times,serif" font-size="14.00" fill="#000000">table(tmpnam_12610621763528338898_0000000000; </text>
<text text-anchor="start" x="8" y="-320.4" font-family="Times,serif" font-size="14.00" fill="#000000"> &#160;x,</text>
<text text-anchor="start" x="8" y="-303.6" font-family="Times,serif" font-size="14.00" fill="#000000"> &#160;y)</text>
</g>
<!-- node_4&#45;&gt;table_tmpnam_12610621763528338898_0000000000 -->
<g id="edge9" class="edge">
<title>node_4&#45;&gt;table_tmpnam_12610621763528338898_0000000000</title>
<path fill="none" stroke="#000000" d="M162.574,-372.8977C162.574,-370.1066 162.574,-367.1712 162.574,-364.1838"/>
<polygon fill="#000000" stroke="#000000" points="166.0741,-363.9607 162.574,-353.9607 159.0741,-363.9607 166.0741,-363.9607"/>
</g>
<!-- node_8 -->
<g id="node5" class="node">
<title>node_8</title>
<polygon fill="#cdc673" stroke="#000000" points="272.168,-260.6 52.98,-260.6 52.98,-224.6 272.168,-224.6 272.168,-260.6"/>
<text text-anchor="start" x="60.7772" y="-238.4" font-family="Times,serif" font-size="14.00" fill="#000000">natural_join(.1, .2, &#160;j= LEFT, by= x)</text>
</g>
<!-- table_tmpnam_12610621763528338898_0000000000&#45;&gt;node_8 -->
<g id="edge4" class="edge">
<title>table_tmpnam_12610621763528338898_0000000000&#45;&gt;node_8</title>
<path fill="none" stroke="#000000" d="M139.6449,-295.0433C138.2178,-292.2271 136.9899,-289.3272 136.074,-286.4 133.8443,-279.274 133.2489,-276.5116 136.074,-269.6 136.1144,-269.5012 136.1553,-269.4026 136.1968,-269.3041"/>
<polygon fill="#000000" stroke="#000000" points="139.2234,-271.0626 141.3717,-260.6878 133.2225,-267.4584 139.2234,-271.0626"/>
<text text-anchor="middle" x="141.824" y="-273.8" font-family="Times,serif" font-size="14.00" fill="#000000">.1</text>
<polyline fill="none" stroke="#000000" points="147.074,-269.6 136.574,-269.6 134.1784,-277.9196 "/>
</g>
<!-- table_tmpnam_12610621763528338898_0000000000&#45;&gt;node_8 -->
<g id="edge5" class="edge">
<title>table_tmpnam_12610621763528338898_0000000000&#45;&gt;node_8</title>
<path fill="none" stroke="#000000" d="M162.574,-294.9961C162.574,-287.1745 162.574,-278.7517 162.574,-270.9956"/>
<polygon fill="#000000" stroke="#000000" points="166.0741,-270.9513 162.574,-260.9513 159.0741,-270.9514 166.0741,-270.9513"/>
<text text-anchor="middle" x="167.824" y="-273.8" font-family="Times,serif" font-size="14.00" fill="#000000">.2</text>
<polyline fill="none" stroke="#000000" points="173.074,-269.6 162.574,-269.6 162.574,-277.6698 "/>
</g>
<!-- node_9 -->
<g id="node6" class="node">
<title>node_9</title>
<polygon fill="#cdc673" stroke="#000000" points="219.5446,-189.6019 105.6034,-189.6019 105.6034,-148.3981 219.5446,-148.3981 219.5446,-189.6019"/>
<text text-anchor="start" x="113.5887" y="-173.2" font-family="Times,serif" font-size="14.00" fill="#000000">select_columns(.,</text>
<text text-anchor="start" x="113.5887" y="-156.4" font-family="Times,serif" font-size="14.00" fill="#000000"> &#160;&#160;x, y)</text>
</g>
<!-- node_8&#45;&gt;node_9 -->
<g id="edge6" class="edge">
<title>node_8&#45;&gt;node_9</title>
<path fill="none" stroke="#000000" d="M162.574,-224.4067C162.574,-217.0437 162.574,-208.3321 162.574,-200.0234"/>
<polygon fill="#000000" stroke="#000000" points="166.0741,-199.8463 162.574,-189.8463 159.0741,-199.8464 166.0741,-199.8463"/>
<text text-anchor="middle" x="164.324" y="-203" font-family="Times,serif" font-size="14.00" fill="#000000">.</text>
<polyline fill="none" stroke="#000000" points="166.074,-198.8 162.574,-198.8 162.574,-207.0905 "/>
</g>
<!-- table_tmpnam_12610621763528338898_0000000001 -->
<g id="node7" class="node">
<title>table_tmpnam_12610621763528338898_0000000001</title>
<polygon fill="#66cd00" stroke="#000000" points="325.222,-129.4014 322.222,-133.4014 301.222,-133.4014 298.222,-129.4014 -.074,-129.4014 -.074,-70.5986 325.222,-70.5986 325.222,-129.4014"/>
<text text-anchor="start" x="8" y="-112.6" font-family="Times,serif" font-size="14.00" fill="#000000">table(tmpnam_12610621763528338898_0000000001; </text>
<text text-anchor="start" x="8" y="-95.8" font-family="Times,serif" font-size="14.00" fill="#000000"> &#160;x,</text>
<text text-anchor="start" x="8" y="-79" font-family="Times,serif" font-size="14.00" fill="#000000"> &#160;y)</text>
</g>
<!-- node_9&#45;&gt;table_tmpnam_12610621763528338898_0000000001 -->
<g id="edge10" class="edge">
<title>node_9&#45;&gt;table_tmpnam_12610621763528338898_0000000001</title>
<path fill="none" stroke="#000000" d="M162.574,-148.2977C162.574,-145.5066 162.574,-142.5712 162.574,-139.5838"/>
<polygon fill="#000000" stroke="#000000" points="166.0741,-139.3607 162.574,-129.3607 159.0741,-139.3607 166.0741,-139.3607"/>
</g>
<!-- node_13 -->
<g id="node8" class="node">
<title>node_13</title>
<polygon fill="#cdc673" stroke="#000000" points="272.168,-36 52.98,-36 52.98,0 272.168,0 272.168,-36"/>
<text text-anchor="start" x="60.7772" y="-13.8" font-family="Times,serif" font-size="14.00" fill="#000000">natural_join(.1, .2, &#160;j= LEFT, by= x)</text>
</g>
<!-- table_tmpnam_12610621763528338898_0000000001&#45;&gt;node_13 -->
<g id="edge7" class="edge">
<title>table_tmpnam_12610621763528338898_0000000001&#45;&gt;node_13</title>
<path fill="none" stroke="#000000" d="M139.6449,-70.4433C138.2178,-67.6271 136.9899,-64.7272 136.074,-61.8 133.8443,-54.674 133.2489,-51.9116 136.074,-45 136.1144,-44.9012 136.1553,-44.8026 136.1968,-44.7041"/>
<polygon fill="#000000" stroke="#000000" points="139.2234,-46.4626 141.3717,-36.0878 133.2225,-42.8584 139.2234,-46.4626"/>
<text text-anchor="middle" x="141.824" y="-49.2" font-family="Times,serif" font-size="14.00" fill="#000000">.1</text>
<polyline fill="none" stroke="#000000" points="147.074,-45 136.574,-45 134.1784,-53.3196 "/>
</g>
<!-- table_tmpnam_12610621763528338898_0000000001&#45;&gt;node_13 -->
<g id="edge8" class="edge">
<title>table_tmpnam_12610621763528338898_0000000001&#45;&gt;node_13</title>
<path fill="none" stroke="#000000" d="M162.574,-70.3961C162.574,-62.5745 162.574,-54.1517 162.574,-46.3956"/>
<polygon fill="#000000" stroke="#000000" points="166.0741,-46.3513 162.574,-36.3513 159.0741,-46.3514 166.0741,-46.3513"/>
<text text-anchor="middle" x="167.824" y="-49.2" font-family="Times,serif" font-size="14.00" fill="#000000">.2</text>
<polyline fill="none" stroke="#000000" points="173.074,-45 162.574,-45 162.574,-53.0698 "/>
</g>
</g>
</svg>

