<?xml version="1.0" encoding="UTF-8" standalone="no"?>
<!DOCTYPE svg PUBLIC "-//W3C//DTD SVG 1.1//EN"
 "http://www.w3.org/Graphics/SVG/1.1/DTD/svg11.dtd">
<!-- Generated by graphviz version 2.40.1 (20161225.0304)
 -->
<!-- Title: rquery_optree Pages: 1 -->
<svg width="306pt" height="663pt"
 viewBox="0.00 0.00 305.99 662.80" xmlns="http://www.w3.org/2000/svg" xmlns:xlink="http://www.w3.org/1999/xlink">
<g id="graph0" class="graph" transform="scale(1 1) rotate(0) translate(4 658.8)">
<title>rquery_optree</title>
<polygon fill="#ffffff" stroke="transparent" points="-4,4 -4,-658.8 301.9922,-658.8 301.9922,4 -4,4"/>
<!-- node_1 -->
<g id="node1" class="node">
<title>node_1</title>
<polygon fill="#66cd00" stroke="#000000" points="222.2271,-654.9003 219.2271,-658.9003 198.2271,-658.9003 195.2271,-654.9003 75.7651,-654.9003 75.7651,-579.4997 222.2271,-579.4997 222.2271,-654.9003"/>
<text text-anchor="start" x="83.8807" y="-638.2" font-family="Times,serif" font-size="14.00" fill="#000000">table(assesment_table; </text>
<text text-anchor="start" x="83.8807" y="-621.4" font-family="Times,serif" font-size="14.00" fill="#000000"> &#160;subjectID,</text>
<text text-anchor="start" x="83.8807" y="-604.6" font-family="Times,serif" font-size="14.00" fill="#000000"> &#160;surveyCategory,</text>
<text text-anchor="start" x="83.8807" y="-587.8" font-family="Times,serif" font-size="14.00" fill="#000000"> &#160;assessmentTotal)</text>
</g>
<!-- node_2 -->
<g id="node2" class="node">
<title>node_2</title>
<polygon fill="#cdc673" stroke="#000000" points="297.9883,-544.6019 .0039,-544.6019 .0039,-503.3981 297.9883,-503.3981 297.9883,-544.6019"/>
<text text-anchor="start" x="8" y="-528.2" font-family="Times,serif" font-size="14.00" fill="#000000">extend(.,</text>
<text text-anchor="start" x="8" y="-511.4" font-family="Times,serif" font-size="14.00" fill="#000000"> &#160;probability %:=% exp(assessmentTotal * 0.237))</text>
</g>
<!-- node_1&#45;&gt;node_2 -->
<g id="edge1" class="edge">
<title>node_1&#45;&gt;node_2</title>
<path fill="none" stroke="#000000" d="M148.9961,-579.5606C148.9961,-571.3637 148.9961,-562.7824 148.9961,-554.8834"/>
<polygon fill="#000000" stroke="#000000" points="152.4962,-554.6353 148.9961,-544.6353 145.4962,-554.6353 152.4962,-554.6353"/>
<text text-anchor="middle" x="150.7461" y="-558" font-family="Times,serif" font-size="14.00" fill="#000000">.</text>
<polyline fill="none" stroke="#000000" points="152.4961,-553.8 148.9961,-553.8 148.9961,-562.0709 "/>
</g>
<!-- node_3 -->
<g id="node3" class="node">
<title>node_3</title>
<polygon fill="#cdc673" stroke="#000000" points="285.6411,-468.6014 12.3511,-468.6014 12.3511,-409.7986 285.6411,-409.7986 285.6411,-468.6014"/>
<text text-anchor="start" x="20.4236" y="-451.8" font-family="Times,serif" font-size="14.00" fill="#000000">extend(.,</text>
<text text-anchor="start" x="20.4236" y="-435" font-family="Times,serif" font-size="14.00" fill="#000000"> &#160;probability := probability / sum(probability),</text>
<text text-anchor="start" x="20.4236" y="-418.2" font-family="Times,serif" font-size="14.00" fill="#000000"> &#160;p= subjectID)</text>
</g>
<!-- node_2&#45;&gt;node_3 -->
<g id="edge2" class="edge">
<title>node_2&#45;&gt;node_3</title>
<path fill="none" stroke="#000000" d="M148.9961,-503.0382C148.9961,-495.646 148.9961,-487.074 148.9961,-478.6574"/>
<polygon fill="#000000" stroke="#000000" points="152.4962,-478.5578 148.9961,-468.5578 145.4962,-478.5578 152.4962,-478.5578"/>
<text text-anchor="middle" x="150.7461" y="-481.6" font-family="Times,serif" font-size="14.00" fill="#000000">.</text>
<polyline fill="none" stroke="#000000" points="152.4961,-477.4 148.9961,-477.4 148.9961,-485.7661 "/>
</g>
<!-- node_4 -->
<g id="node4" class="node">
<title>node_4</title>
<polygon fill="#cdc673" stroke="#000000" points="289.6827,-375.3003 8.3095,-375.3003 8.3095,-299.8997 289.6827,-299.8997 289.6827,-375.3003"/>
<text text-anchor="start" x="16.1529" y="-358.6" font-family="Times,serif" font-size="14.00" fill="#000000">extend(.,</text>
<text text-anchor="start" x="16.1529" y="-341.8" font-family="Times,serif" font-size="14.00" fill="#000000"> &#160;row_number := row_number(),</text>
<text text-anchor="start" x="16.1529" y="-325" font-family="Times,serif" font-size="14.00" fill="#000000"> &#160;p= subjectID,</text>
<text text-anchor="start" x="16.1529" y="-308.2" font-family="Times,serif" font-size="14.00" fill="#000000"> &#160;o= probability DESC, surveyCategory DESC)</text>
</g>
<!-- node_3&#45;&gt;node_4 -->
<g id="edge3" class="edge">
<title>node_3&#45;&gt;node_4</title>
<path fill="none" stroke="#000000" d="M148.9961,-409.8131C148.9961,-402.1467 148.9961,-393.6838 148.9961,-385.332"/>
<polygon fill="#000000" stroke="#000000" points="152.4962,-385.2606 148.9961,-375.2606 145.4962,-385.2607 152.4962,-385.2606"/>
<text text-anchor="middle" x="150.7461" y="-388.4" font-family="Times,serif" font-size="14.00" fill="#000000">.</text>
<polyline fill="none" stroke="#000000" points="152.4961,-384.2 148.9961,-384.2 148.9961,-392.385 "/>
</g>
<!-- node_5 -->
<g id="node5" class="node">
<title>node_5</title>
<polygon fill="#cdc673" stroke="#000000" points="215.4798,-265.0019 82.5124,-265.0019 82.5124,-223.7981 215.4798,-223.7981 215.4798,-265.0019"/>
<text text-anchor="start" x="90.7547" y="-248.6" font-family="Times,serif" font-size="14.00" fill="#000000">select_rows(.,</text>
<text text-anchor="start" x="90.7547" y="-231.8" font-family="Times,serif" font-size="14.00" fill="#000000"> &#160;&#160;row_number &lt;= 1)</text>
</g>
<!-- node_4&#45;&gt;node_5 -->
<g id="edge4" class="edge">
<title>node_4&#45;&gt;node_5</title>
<path fill="none" stroke="#000000" d="M148.9961,-299.9606C148.9961,-291.7637 148.9961,-283.1824 148.9961,-275.2834"/>
<polygon fill="#000000" stroke="#000000" points="152.4962,-275.0353 148.9961,-265.0353 145.4962,-275.0353 152.4962,-275.0353"/>
<text text-anchor="middle" x="150.7461" y="-278.4" font-family="Times,serif" font-size="14.00" fill="#000000">.</text>
<polyline fill="none" stroke="#000000" points="152.4961,-274.2 148.9961,-274.2 148.9961,-282.4709 "/>
</g>
<!-- node_6 -->
<g id="node6" class="node">
<title>node_6</title>
<polygon fill="#cdc673" stroke="#000000" points="248.6093,-188.6019 49.3829,-188.6019 49.3829,-147.3981 248.6093,-147.3981 248.6093,-188.6019"/>
<text text-anchor="start" x="57.1897" y="-172.2" font-family="Times,serif" font-size="14.00" fill="#000000">rename(.,</text>
<text text-anchor="start" x="57.1897" y="-155.4" font-family="Times,serif" font-size="14.00" fill="#000000"> &#160;c(diagnosis = surveyCategory))</text>
</g>
<!-- node_5&#45;&gt;node_6 -->
<g id="edge5" class="edge">
<title>node_5&#45;&gt;node_6</title>
<path fill="none" stroke="#000000" d="M148.9961,-223.5234C148.9961,-215.9436 148.9961,-207.2093 148.9961,-198.9453"/>
<polygon fill="#000000" stroke="#000000" points="152.4962,-198.8514 148.9961,-188.8514 145.4962,-198.8514 152.4962,-198.8514"/>
<text text-anchor="middle" x="150.7461" y="-202" font-family="Times,serif" font-size="14.00" fill="#000000">.</text>
<polyline fill="none" stroke="#000000" points="152.4961,-197.8 148.9961,-197.8 148.9961,-205.9935 "/>
</g>
<!-- node_7 -->
<g id="node7" class="node">
<title>node_7</title>
<polygon fill="#cdc673" stroke="#000000" points="255.9015,-112.2019 42.0907,-112.2019 42.0907,-70.9981 255.9015,-70.9981 255.9015,-112.2019"/>
<text text-anchor="start" x="50.0434" y="-95.8" font-family="Times,serif" font-size="14.00" fill="#000000">select_columns(.,</text>
<text text-anchor="start" x="50.0434" y="-79" font-family="Times,serif" font-size="14.00" fill="#000000"> &#160;&#160;subjectID, diagnosis, probability)</text>
</g>
<!-- node_6&#45;&gt;node_7 -->
<g id="edge6" class="edge">
<title>node_6&#45;&gt;node_7</title>
<path fill="none" stroke="#000000" d="M148.9961,-147.1234C148.9961,-139.5436 148.9961,-130.8093 148.9961,-122.5453"/>
<polygon fill="#000000" stroke="#000000" points="152.4962,-122.4514 148.9961,-112.4514 145.4962,-122.4514 152.4962,-122.4514"/>
<text text-anchor="middle" x="150.7461" y="-125.6" font-family="Times,serif" font-size="14.00" fill="#000000">.</text>
<polyline fill="none" stroke="#000000" points="152.4961,-121.4 148.9961,-121.4 148.9961,-129.5935 "/>
</g>
<!-- node_8 -->
<g id="node8" class="node">
<title>node_8</title>
<polygon fill="#cdc673" stroke="#000000" points="215.7755,-36 82.2167,-36 82.2167,0 215.7755,0 215.7755,-36"/>
<text text-anchor="start" x="90.1065" y="-13.8" font-family="Times,serif" font-size="14.00" fill="#000000">orderby(., subjectID)</text>
</g>
<!-- node_7&#45;&gt;node_8 -->
<g id="edge7" class="edge">
<title>node_7&#45;&gt;node_8</title>
<path fill="none" stroke="#000000" d="M148.9961,-70.7061C148.9961,-63.1413 148.9961,-54.4661 148.9961,-46.3668"/>
<polygon fill="#000000" stroke="#000000" points="152.4962,-46.1932 148.9961,-36.1933 145.4962,-46.1933 152.4962,-46.1932"/>
<text text-anchor="middle" x="150.7461" y="-49.2" font-family="Times,serif" font-size="14.00" fill="#000000">.</text>
<polyline fill="none" stroke="#000000" points="152.4961,-45 148.9961,-45 148.9961,-53.2997 "/>
</g>
</g>
</svg>

