<?xml version="1.0" encoding="UTF-8" standalone="no"?>
<!DOCTYPE svg PUBLIC "-//W3C//DTD SVG 1.1//EN"
 "http://www.w3.org/Graphics/SVG/1.1/DTD/svg11.dtd">
<!-- Generated by graphviz version 2.40.1 (20161225.0304)
 -->
<!-- Title: rquery_optree Pages: 1 -->
<svg width="333pt" height="444pt"
 viewBox="0.00 0.00 333.15 443.80" xmlns="http://www.w3.org/2000/svg" xmlns:xlink="http://www.w3.org/1999/xlink">
<g id="graph0" class="graph" transform="scale(1 1) rotate(0) translate(4 439.8)">
<title>rquery_optree</title>
<polygon fill="#ffffff" stroke="transparent" points="-4,4 -4,-439.8 329.148,-439.8 329.148,4 -4,4"/>
<!-- table_d -->
<g id="node1" class="node">
<title>table_d</title>
<polygon fill="#66cd00" stroke="#000000" points="198.158,-435.6019 195.158,-439.6019 174.158,-439.6019 171.158,-435.6019 126.99,-435.6019 126.99,-394.3981 198.158,-394.3981 198.158,-435.6019"/>
<text text-anchor="start" x="134.7826" y="-419.2" font-family="Times,serif" font-size="14.00" fill="#000000">table(`d`; </text>
<text text-anchor="start" x="134.7826" y="-402.4" font-family="Times,serif" font-size="14.00" fill="#000000"> &#160;x)</text>
</g>
<!-- node_3 -->
<g id="node2" class="node">
<title>node_3</title>
<polygon fill="#cdc673" stroke="#000000" points="272.168,-359.4 52.98,-359.4 52.98,-323.4 272.168,-323.4 272.168,-359.4"/>
<text text-anchor="start" x="60.7772" y="-337.2" font-family="Times,serif" font-size="14.00" fill="#000000">natural_join(.1, .2, &#160;j= LEFT, by= x)</text>
</g>
<!-- table_d&#45;&gt;node_3 -->
<g id="edge1" class="edge">
<title>table_d&#45;&gt;node_3</title>
<path fill="none" stroke="#000000" d="M140.8591,-394.1017C138.9253,-391.2951 137.2553,-388.3061 136.074,-385.2 133.4198,-378.221 133.2489,-375.3116 136.074,-368.4 136.1144,-368.3012 136.1553,-368.2026 136.1968,-368.1041"/>
<polygon fill="#000000" stroke="#000000" points="139.2234,-369.8626 141.3717,-359.4878 133.2225,-366.2584 139.2234,-369.8626"/>
<text text-anchor="middle" x="141.824" y="-372.6" font-family="Times,serif" font-size="14.00" fill="#000000">.1</text>
<polyline fill="none" stroke="#000000" points="147.074,-368.4 136.574,-368.4 134.0192,-376.7747 "/>
</g>
<!-- table_d&#45;&gt;node_3 -->
<g id="edge2" class="edge">
<title>table_d&#45;&gt;node_3</title>
<path fill="none" stroke="#000000" d="M162.574,-394.1061C162.574,-386.5413 162.574,-377.8661 162.574,-369.7668"/>
<polygon fill="#000000" stroke="#000000" points="166.0741,-369.5932 162.574,-359.5933 159.0741,-369.5933 166.0741,-369.5932"/>
<text text-anchor="middle" x="167.824" y="-372.6" font-family="Times,serif" font-size="14.00" fill="#000000">.2</text>
<polyline fill="none" stroke="#000000" points="173.074,-368.4 162.574,-368.4 162.574,-376.6997 "/>
</g>
<!-- table_tmpnam_74925700276090619476_0000000003 -->
<g id="node3" class="node">
<title>table_tmpnam_74925700276090619476_0000000003</title>
<polygon fill="#66cd00" stroke="#000000" points="325.222,-304.2019 322.222,-308.2019 301.222,-308.2019 298.222,-304.2019 -.074,-304.2019 -.074,-262.9981 325.222,-262.9981 325.222,-304.2019"/>
<text text-anchor="start" x="8" y="-287.8" font-family="Times,serif" font-size="14.00" fill="#000000">table(tmpnam_74925700276090619476_0000000003; </text>
<text text-anchor="start" x="8" y="-271" font-family="Times,serif" font-size="14.00" fill="#000000"> &#160;x)</text>
</g>
<!-- node_3&#45;&gt;table_tmpnam_74925700276090619476_0000000003 -->
<g id="edge7" class="edge">
<title>node_3&#45;&gt;table_tmpnam_74925700276090619476_0000000003</title>
<path fill="none" stroke="#000000" d="M162.574,-323.1117C162.574,-320.3211 162.574,-317.3773 162.574,-314.4064"/>
<polygon fill="#000000" stroke="#000000" points="166.0741,-314.3854 162.574,-304.3855 159.0741,-314.3855 166.0741,-314.3854"/>
</g>
<!-- node_7 -->
<g id="node4" class="node">
<title>node_7</title>
<polygon fill="#cdc673" stroke="#000000" points="272.168,-228 52.98,-228 52.98,-192 272.168,-192 272.168,-228"/>
<text text-anchor="start" x="60.7772" y="-205.8" font-family="Times,serif" font-size="14.00" fill="#000000">natural_join(.1, .2, &#160;j= LEFT, by= x)</text>
</g>
<!-- table_tmpnam_74925700276090619476_0000000003&#45;&gt;node_7 -->
<g id="edge3" class="edge">
<title>table_tmpnam_74925700276090619476_0000000003&#45;&gt;node_7</title>
<path fill="none" stroke="#000000" d="M140.8591,-262.7017C138.9253,-259.8951 137.2553,-256.9061 136.074,-253.8 133.4198,-246.821 133.2489,-243.9116 136.074,-237 136.1144,-236.9012 136.1553,-236.8026 136.1968,-236.7041"/>
<polygon fill="#000000" stroke="#000000" points="139.2234,-238.4626 141.3717,-228.0878 133.2225,-234.8584 139.2234,-238.4626"/>
<text text-anchor="middle" x="141.824" y="-241.2" font-family="Times,serif" font-size="14.00" fill="#000000">.1</text>
<polyline fill="none" stroke="#000000" points="147.074,-237 136.574,-237 134.0192,-245.3747 "/>
</g>
<!-- table_tmpnam_74925700276090619476_0000000003&#45;&gt;node_7 -->
<g id="edge4" class="edge">
<title>table_tmpnam_74925700276090619476_0000000003&#45;&gt;node_7</title>
<path fill="none" stroke="#000000" d="M162.574,-262.7061C162.574,-255.1413 162.574,-246.4661 162.574,-238.3668"/>
<polygon fill="#000000" stroke="#000000" points="166.0741,-238.1932 162.574,-228.1933 159.0741,-238.1933 166.0741,-238.1932"/>
<text text-anchor="middle" x="167.824" y="-241.2" font-family="Times,serif" font-size="14.00" fill="#000000">.2</text>
<polyline fill="none" stroke="#000000" points="173.074,-237 162.574,-237 162.574,-245.2997 "/>
</g>
<!-- table_tmpnam_74925700276090619476_0000000004 -->
<g id="node5" class="node">
<title>table_tmpnam_74925700276090619476_0000000004</title>
<polygon fill="#66cd00" stroke="#000000" points="325.222,-172.8019 322.222,-176.8019 301.222,-176.8019 298.222,-172.8019 -.074,-172.8019 -.074,-131.5981 325.222,-131.5981 325.222,-172.8019"/>
<text text-anchor="start" x="8" y="-156.4" font-family="Times,serif" font-size="14.00" fill="#000000">table(tmpnam_74925700276090619476_0000000004; </text>
<text text-anchor="start" x="8" y="-139.6" font-family="Times,serif" font-size="14.00" fill="#000000"> &#160;x)</text>
</g>
<!-- node_7&#45;&gt;table_tmpnam_74925700276090619476_0000000004 -->
<g id="edge8" class="edge">
<title>node_7&#45;&gt;table_tmpnam_74925700276090619476_0000000004</title>
<path fill="none" stroke="#000000" d="M162.574,-191.7117C162.574,-188.9211 162.574,-185.9773 162.574,-183.0064"/>
<polygon fill="#000000" stroke="#000000" points="166.0741,-182.9854 162.574,-172.9855 159.0741,-182.9855 166.0741,-182.9854"/>
</g>
<!-- node_11 -->
<g id="node6" class="node">
<title>node_11</title>
<polygon fill="#cdc673" stroke="#000000" points="272.168,-96.6 52.98,-96.6 52.98,-60.6 272.168,-60.6 272.168,-96.6"/>
<text text-anchor="start" x="60.7772" y="-74.4" font-family="Times,serif" font-size="14.00" fill="#000000">natural_join(.1, .2, &#160;j= LEFT, by= x)</text>
</g>
<!-- table_tmpnam_74925700276090619476_0000000004&#45;&gt;node_11 -->
<g id="edge5" class="edge">
<title>table_tmpnam_74925700276090619476_0000000004&#45;&gt;node_11</title>
<path fill="none" stroke="#000000" d="M140.8591,-131.3017C138.9253,-128.4951 137.2553,-125.5061 136.074,-122.4 133.4198,-115.421 133.2489,-112.5116 136.074,-105.6 136.1144,-105.5012 136.1553,-105.4026 136.1968,-105.3041"/>
<polygon fill="#000000" stroke="#000000" points="139.2234,-107.0626 141.3717,-96.6878 133.2225,-103.4584 139.2234,-107.0626"/>
<text text-anchor="middle" x="141.824" y="-109.8" font-family="Times,serif" font-size="14.00" fill="#000000">.1</text>
<polyline fill="none" stroke="#000000" points="147.074,-105.6 136.574,-105.6 134.0192,-113.9747 "/>
</g>
<!-- table_tmpnam_74925700276090619476_0000000004&#45;&gt;node_11 -->
<g id="edge6" class="edge">
<title>table_tmpnam_74925700276090619476_0000000004&#45;&gt;node_11</title>
<path fill="none" stroke="#000000" d="M162.574,-131.3061C162.574,-123.7413 162.574,-115.0661 162.574,-106.9668"/>
<polygon fill="#000000" stroke="#000000" points="166.0741,-106.7932 162.574,-96.7933 159.0741,-106.7933 166.0741,-106.7932"/>
<text text-anchor="middle" x="167.824" y="-109.8" font-family="Times,serif" font-size="14.00" fill="#000000">.2</text>
<polyline fill="none" stroke="#000000" points="173.074,-105.6 162.574,-105.6 162.574,-113.8997 "/>
</g>
<!-- table_tmpnam_74925700276090619476_0000000005 -->
<g id="node7" class="node">
<title>table_tmpnam_74925700276090619476_0000000005</title>
<polygon fill="#66cd00" stroke="#000000" points="325.222,-41.4019 322.222,-45.4019 301.222,-45.4019 298.222,-41.4019 -.074,-41.4019 -.074,-.1981 325.222,-.1981 325.222,-41.4019"/>
<text text-anchor="start" x="8" y="-25" font-family="Times,serif" font-size="14.00" fill="#000000">table(tmpnam_74925700276090619476_0000000005; </text>
<text text-anchor="start" x="8" y="-8.2" font-family="Times,serif" font-size="14.00" fill="#000000"> &#160;x)</text>
</g>
<!-- node_11&#45;&gt;table_tmpnam_74925700276090619476_0000000005 -->
<g id="edge9" class="edge">
<title>node_11&#45;&gt;table_tmpnam_74925700276090619476_0000000005</title>
<path fill="none" stroke="#000000" d="M162.574,-60.3117C162.574,-57.5211 162.574,-54.5773 162.574,-51.6064"/>
<polygon fill="#000000" stroke="#000000" points="166.0741,-51.5854 162.574,-41.5855 159.0741,-51.5855 166.0741,-51.5854"/>
</g>
</g>
</svg>

