<?xml version="1.0" encoding="UTF-8" standalone="no"?>
<!DOCTYPE svg PUBLIC "-//W3C//DTD SVG 1.1//EN"
 "http://www.w3.org/Graphics/SVG/1.1/DTD/svg11.dtd">
<!-- Generated by graphviz version 2.40.1 (20161225.0304)
 -->
<!-- Title: rquery_optree Pages: 1 -->
<svg width="996pt" height="262pt"
 viewBox="0.00 0.00 995.59 262.00" xmlns="http://www.w3.org/2000/svg" xmlns:xlink="http://www.w3.org/1999/xlink">
<g id="graph0" class="graph" transform="scale(1 1) rotate(0) translate(4 258)">
<title>rquery_optree</title>
<polygon fill="#ffffff" stroke="transparent" points="-4,4 -4,-258 991.5936,-258 991.5936,4 -4,4"/>
<!-- table_d -->
<g id="node1" class="node">
<title>table_d</title>
<polygon fill="#66cd00" stroke="#000000" points="535.3808,-253.8019 532.3808,-257.8019 511.3808,-257.8019 508.3808,-253.8019 464.2128,-253.8019 464.2128,-212.5981 535.3808,-212.5981 535.3808,-253.8019"/>
<text text-anchor="start" x="472.0054" y="-237.4" font-family="Times,serif" font-size="14.00" fill="#000000">table(`d`; </text>
<text text-anchor="start" x="472.0054" y="-220.6" font-family="Times,serif" font-size="14.00" fill="#000000"> &#160;x)</text>
</g>
<!-- node_3 -->
<g id="node2" class="node">
<title>node_3</title>
<polygon fill="#ffa500" stroke="#000000" points="213.3908,-177.6 .2028,-177.6 .2028,-141.6 219.3908,-141.6 219.3908,-171.6 213.3908,-177.6"/>
<polyline fill="none" stroke="#000000" points="213.3908,-177.6 213.3908,-171.6 "/>
<polyline fill="none" stroke="#000000" points="219.3908,-171.6 213.3908,-171.6 "/>
<text text-anchor="start" x="8" y="-155.4" font-family="Times,serif" font-size="14.00" fill="#000000">natural_join(.1, .2, &#160;j= LEFT, by= x)</text>
</g>
<!-- table_d&#45;&gt;node_3 -->
<g id="edge1" class="edge">
<title>table_d&#45;&gt;node_3</title>
<path fill="none" stroke="#000000" d="M463.9066,-232.1527C411.1664,-229.9727 309.9268,-223.3411 226.2968,-203.4 203.8877,-198.0567 179.9377,-189.5671 159.6169,-181.4787"/>
<polygon fill="#000000" stroke="#000000" points="160.8381,-178.1971 150.2558,-177.6801 158.2059,-184.6834 160.8381,-178.1971"/>
<text text-anchor="middle" x="232.0468" y="-190.8" font-family="Times,serif" font-size="14.00" fill="#000000">.1</text>
<polyline fill="none" stroke="#000000" points="237.2968,-186.6 226.7968,-186.6 226.264,-203.3922 "/>
</g>
<!-- table_d&#45;&gt;node_3 -->
<g id="edge2" class="edge">
<title>table_d&#45;&gt;node_3</title>
<path fill="none" stroke="#000000" d="M464.153,-226.4734C408.3186,-215.9364 298.0644,-195.1295 215.2898,-179.5084"/>
<polygon fill="#000000" stroke="#000000" points="215.8127,-176.0454 205.3371,-177.6302 214.5145,-182.924 215.8127,-176.0454"/>
<text text-anchor="middle" x="344.0468" y="-190.8" font-family="Times,serif" font-size="14.00" fill="#000000">.2</text>
<polyline fill="none" stroke="#000000" points="349.2968,-186.6 338.7968,-186.6 349.8404,-204.9005 "/>
</g>
<!-- node_6 -->
<g id="node3" class="node">
<title>node_6</title>
<polygon fill="#ffa500" stroke="#000000" points="469.3908,-177.6 256.2028,-177.6 256.2028,-141.6 475.3908,-141.6 475.3908,-171.6 469.3908,-177.6"/>
<polyline fill="none" stroke="#000000" points="469.3908,-177.6 469.3908,-171.6 "/>
<polyline fill="none" stroke="#000000" points="475.3908,-171.6 469.3908,-171.6 "/>
<text text-anchor="start" x="264" y="-155.4" font-family="Times,serif" font-size="14.00" fill="#000000">natural_join(.1, .2, &#160;j= LEFT, by= x)</text>
</g>
<!-- table_d&#45;&gt;node_6 -->
<g id="edge3" class="edge">
<title>table_d&#45;&gt;node_6</title>
<path fill="none" stroke="#000000" d="M464.1132,-223.1191C449.4106,-218.2208 432.5237,-211.6011 418.2968,-203.4 409.1956,-198.1536 400.1127,-191.3001 392.1232,-184.5776"/>
<polygon fill="#000000" stroke="#000000" points="394.3752,-181.8975 384.5379,-177.9631 389.7745,-187.1733 394.3752,-181.8975"/>
<text text-anchor="middle" x="423.0468" y="-190.8" font-family="Times,serif" font-size="14.00" fill="#000000">.1</text>
<polyline fill="none" stroke="#000000" points="428.2968,-186.6 417.7968,-186.6 417.8702,-203.1529 "/>
</g>
<!-- table_d&#45;&gt;node_6 -->
<g id="edge4" class="edge">
<title>table_d&#45;&gt;node_6</title>
<path fill="none" stroke="#000000" d="M473.4377,-212.4219C461.7138,-203.7606 447.4873,-194.0149 433.7968,-186.6 430.8928,-185.0272 427.8773,-183.4954 424.8028,-182.0124"/>
<polygon fill="#000000" stroke="#000000" points="426.0034,-178.7123 415.4553,-177.718 423.0811,-185.0731 426.0034,-178.7123"/>
<text text-anchor="middle" x="465.0468" y="-190.8" font-family="Times,serif" font-size="14.00" fill="#000000">.2</text>
<polyline fill="none" stroke="#000000" points="470.2968,-186.6 459.7968,-186.6 459.9693,-202.8223 "/>
</g>
<!-- node_10 -->
<g id="node5" class="node">
<title>node_10</title>
<polygon fill="#ffa500" stroke="#000000" points="725.3908,-177.6 512.2028,-177.6 512.2028,-141.6 731.3908,-141.6 731.3908,-171.6 725.3908,-177.6"/>
<polyline fill="none" stroke="#000000" points="725.3908,-177.6 725.3908,-171.6 "/>
<polyline fill="none" stroke="#000000" points="731.3908,-171.6 725.3908,-171.6 "/>
<text text-anchor="start" x="520" y="-155.4" font-family="Times,serif" font-size="14.00" fill="#000000">natural_join(.1, .2, &#160;j= LEFT, by= x)</text>
</g>
<!-- table_d&#45;&gt;node_10 -->
<g id="edge7" class="edge">
<title>table_d&#45;&gt;node_10</title>
<path fill="none" stroke="#000000" d="M523.3879,-212.4453C533.9266,-203.7882 546.7758,-194.0392 559.2968,-186.6 561.7737,-185.1284 564.3456,-183.6922 566.9718,-182.2981"/>
<polygon fill="#000000" stroke="#000000" points="568.6917,-185.3509 576.0517,-177.7298 565.5455,-179.0977 568.6917,-185.3509"/>
<text text-anchor="middle" x="564.0468" y="-190.8" font-family="Times,serif" font-size="14.00" fill="#000000">.1</text>
<polyline fill="none" stroke="#000000" points="569.2968,-186.6 558.7968,-186.6 559.5293,-186.4621 "/>
</g>
<!-- table_d&#45;&gt;node_10 -->
<g id="edge8" class="edge">
<title>table_d&#45;&gt;node_10</title>
<path fill="none" stroke="#000000" d="M535.4549,-222.1189C548.3609,-217.325 562.7204,-211.0419 574.7968,-203.4 582.9642,-198.2316 590.9877,-191.5435 598.0288,-184.9568"/>
<polygon fill="#000000" stroke="#000000" points="600.5247,-187.4117 605.2439,-177.9259 595.6393,-182.3983 600.5247,-187.4117"/>
<text text-anchor="middle" x="600.0468" y="-190.8" font-family="Times,serif" font-size="14.00" fill="#000000">.2</text>
<polyline fill="none" stroke="#000000" points="605.2968,-186.6 594.7968,-186.6 594.3155,-188.3538 "/>
</g>
<!-- node_13 -->
<g id="node6" class="node">
<title>node_13</title>
<polygon fill="#ffa500" stroke="#000000" points="981.3908,-177.6 768.2028,-177.6 768.2028,-141.6 987.3908,-141.6 987.3908,-171.6 981.3908,-177.6"/>
<polyline fill="none" stroke="#000000" points="981.3908,-177.6 981.3908,-171.6 "/>
<polyline fill="none" stroke="#000000" points="987.3908,-171.6 981.3908,-171.6 "/>
<text text-anchor="start" x="776" y="-155.4" font-family="Times,serif" font-size="14.00" fill="#000000">natural_join(.1, .2, &#160;j= LEFT, by= x)</text>
</g>
<!-- table_d&#45;&gt;node_13 -->
<g id="edge9" class="edge">
<title>table_d&#45;&gt;node_13</title>
<path fill="none" stroke="#000000" d="M535.6989,-226.2095C590.1314,-215.611 695.6113,-195.0731 775.1262,-179.5909"/>
<polygon fill="#000000" stroke="#000000" points="776.0334,-182.9801 785.1802,-177.6333 774.6956,-176.1091 776.0334,-182.9801"/>
<text text-anchor="middle" x="738.0468" y="-190.8" font-family="Times,serif" font-size="14.00" fill="#000000">.1</text>
<polyline fill="none" stroke="#000000" points="743.2968,-186.6 732.7968,-186.6 736.7479,-187.0635 "/>
</g>
<!-- table_d&#45;&gt;node_13 -->
<g id="edge10" class="edge">
<title>table_d&#45;&gt;node_13</title>
<path fill="none" stroke="#000000" d="M535.4164,-231.4742C584.7782,-228.5257 676.5253,-221.0284 752.7968,-203.4 776.8019,-197.8518 802.6094,-189.2753 824.5056,-181.1774"/>
<polygon fill="#000000" stroke="#000000" points="825.823,-184.4213 833.9509,-177.6251 823.3589,-177.8694 825.823,-184.4213"/>
<text text-anchor="middle" x="813.0468" y="-190.8" font-family="Times,serif" font-size="14.00" fill="#000000">.2</text>
<polyline fill="none" stroke="#000000" points="818.2968,-186.6 807.7968,-186.6 810.181,-186.3328 "/>
</g>
<!-- node_7 -->
<g id="node4" class="node">
<title>node_7</title>
<polygon fill="#ffa500" stroke="#000000" points="469.3908,-106.8 256.2028,-106.8 256.2028,-70.8 475.3908,-70.8 475.3908,-100.8 469.3908,-106.8"/>
<polyline fill="none" stroke="#000000" points="469.3908,-106.8 469.3908,-100.8 "/>
<polyline fill="none" stroke="#000000" points="475.3908,-100.8 469.3908,-100.8 "/>
<text text-anchor="start" x="264" y="-84.6" font-family="Times,serif" font-size="14.00" fill="#000000">natural_join(.1, .2, &#160;j= LEFT, by= x)</text>
</g>
<!-- node_3&#45;&gt;node_7 -->
<g id="edge5" class="edge">
<title>node_3&#45;&gt;node_7</title>
<path fill="none" stroke="#000000" d="M175.0588,-141.551C210.415,-131.7728 254.2559,-119.648 290.9881,-109.4893"/>
<polygon fill="#000000" stroke="#000000" points="291.9488,-112.8551 300.654,-106.8161 290.0828,-106.1083 291.9488,-112.8551"/>
<text text-anchor="middle" x="266.0468" y="-120" font-family="Times,serif" font-size="14.00" fill="#000000">.1</text>
<polyline fill="none" stroke="#000000" points="271.2968,-115.8 260.7968,-115.8 263.7304,-117.0277 "/>
</g>
<!-- node_6&#45;&gt;node_7 -->
<g id="edge6" class="edge">
<title>node_6&#45;&gt;node_7</title>
<path fill="none" stroke="#000000" d="M365.7968,-141.3672C365.7968,-134.0743 365.7968,-125.4987 365.7968,-117.4137"/>
<polygon fill="#000000" stroke="#000000" points="369.2969,-117.217 365.7968,-107.217 362.2969,-117.2171 369.2969,-117.217"/>
<text text-anchor="middle" x="371.0468" y="-120" font-family="Times,serif" font-size="14.00" fill="#000000">.2</text>
<polyline fill="none" stroke="#000000" points="376.2968,-115.8 365.7968,-115.8 365.7968,-124.3124 "/>
</g>
<!-- node_15 -->
<g id="node8" class="node">
<title>node_15</title>
<polygon fill="#ffa500" stroke="#000000" points="597.3908,-36 384.2028,-36 384.2028,0 603.3908,0 603.3908,-30 597.3908,-36"/>
<polyline fill="none" stroke="#000000" points="597.3908,-36 597.3908,-30 "/>
<polyline fill="none" stroke="#000000" points="603.3908,-30 597.3908,-30 "/>
<text text-anchor="start" x="392" y="-13.8" font-family="Times,serif" font-size="14.00" fill="#000000">natural_join(.1, .2, &#160;j= LEFT, by= x)</text>
</g>
<!-- node_7&#45;&gt;node_15 -->
<g id="edge13" class="edge">
<title>node_7&#45;&gt;node_15</title>
<path fill="none" stroke="#000000" d="M398.4278,-70.751C414.8271,-61.6801 434.8771,-50.59 452.3537,-40.9232"/>
<polygon fill="#000000" stroke="#000000" points="454.1689,-43.919 461.2254,-36.0161 450.7807,-37.7936 454.1689,-43.919"/>
<text text-anchor="middle" x="446.0468" y="-49.2" font-family="Times,serif" font-size="14.00" fill="#000000">.1</text>
<polyline fill="none" stroke="#000000" points="451.2968,-45 440.7968,-45 442.2927,-46.4882 "/>
</g>
<!-- node_14 -->
<g id="node7" class="node">
<title>node_14</title>
<polygon fill="#ffa500" stroke="#000000" points="725.3908,-106.8 512.2028,-106.8 512.2028,-70.8 731.3908,-70.8 731.3908,-100.8 725.3908,-106.8"/>
<polyline fill="none" stroke="#000000" points="725.3908,-106.8 725.3908,-100.8 "/>
<polyline fill="none" stroke="#000000" points="731.3908,-100.8 725.3908,-100.8 "/>
<text text-anchor="start" x="520" y="-84.6" font-family="Times,serif" font-size="14.00" fill="#000000">natural_join(.1, .2, &#160;j= LEFT, by= x)</text>
</g>
<!-- node_10&#45;&gt;node_14 -->
<g id="edge11" class="edge">
<title>node_10&#45;&gt;node_14</title>
<path fill="none" stroke="#000000" d="M621.7968,-141.3672C621.7968,-134.0743 621.7968,-125.4987 621.7968,-117.4137"/>
<polygon fill="#000000" stroke="#000000" points="625.2969,-117.217 621.7968,-107.217 618.2969,-117.2171 625.2969,-117.217"/>
<text text-anchor="middle" x="627.0468" y="-120" font-family="Times,serif" font-size="14.00" fill="#000000">.1</text>
<polyline fill="none" stroke="#000000" points="632.2968,-115.8 621.7968,-115.8 621.7968,-124.3124 "/>
</g>
<!-- node_13&#45;&gt;node_14 -->
<g id="edge12" class="edge">
<title>node_13&#45;&gt;node_14</title>
<path fill="none" stroke="#000000" d="M812.5348,-141.551C777.1786,-131.7728 733.3377,-119.648 696.6055,-109.4893"/>
<polygon fill="#000000" stroke="#000000" points="697.5108,-106.1083 686.9396,-106.8161 695.6448,-112.8551 697.5108,-106.1083"/>
<text text-anchor="middle" x="777.0468" y="-120" font-family="Times,serif" font-size="14.00" fill="#000000">.2</text>
<polyline fill="none" stroke="#000000" points="782.2968,-115.8 771.7968,-115.8 775.0813,-131.1927 "/>
</g>
<!-- node_14&#45;&gt;node_15 -->
<g id="edge14" class="edge">
<title>node_14&#45;&gt;node_15</title>
<path fill="none" stroke="#000000" d="M589.1658,-70.751C572.7665,-61.6801 552.7165,-50.59 535.2399,-40.9232"/>
<polygon fill="#000000" stroke="#000000" points="536.8129,-37.7936 526.3682,-36.0161 533.4247,-43.919 536.8129,-37.7936"/>
<text text-anchor="middle" x="574.0468" y="-49.2" font-family="Times,serif" font-size="14.00" fill="#000000">.2</text>
<polyline fill="none" stroke="#000000" points="579.2968,-45 568.7968,-45 570.3597,-60.3489 "/>
</g>
</g>
</svg>

